<?xml version="1.0" encoding="utf-8"?>
<!-- Generator: Adobe Illustrator 18.0.0, SVG Export Plug-In . SVG Version: 6.00 Build 0)  -->
<!DOCTYPE svg PUBLIC "-//W3C//DTD SVG 1.1//EN" "http://www.w3.org/Graphics/SVG/1.1/DTD/svg11.dtd">
<svg version="1.1" id="Layer_1" xmlns="http://www.w3.org/2000/svg" xmlns:xlink="http://www.w3.org/1999/xlink" x="0px" y="0px"
	 viewBox="0 0 14.9 17.7" style="enable-background:new 0 0 14.9 17.7;" xml:space="preserve">
<g id="logo" style="display:none;">
	<path style="display:inline;fill:#79787A;" d="M73,2.3c1.3-0.2,2.4-0.1,3.7-0.1c1.9,3.1,3.8,6.3,5.7,9.5c0.1,0,0.2-0.1,0.3-0.1
		c0-3,0-6,0-9.1c1-0.6,1.9-0.4,2.9-0.2c0,4.6,0,9.2,0,13.8c-0.5,0.5-1.1,0.3-1.7,0.3c-0.5,0-1.1,0-1.7,0c-2-3.3-4-6.7-5.9-10
		c-0.1,0-0.2,0.1-0.3,0.1c0,3.2,0,6.4,0,9.5c-1.3,0.4-1.3,0.4-3.1,0.2C73,11.7,73,7,73,2.3z"/>
	<path style="display:inline;fill:#78787A;" d="M124.4,8.2c0,2.8,0,5.4,0,8.2c-3.3,0.1-6.4,0.4-9.6-0.3c-2-0.4-3.3-2-3.7-4
		c-0.4-1.8-0.4-3.7,0.1-5.5c0.6-2.4,2.2-3.8,4.6-4.2c2.8-0.4,5.6-0.2,8.4-0.2c0.5,0.8,0.4,1.5,0.2,2.2c-0.9,0.4-1.8,0.2-2.6,0.2
		c-0.9,0-1.8,0-2.7,0c-1.6,0-3.4-0.1-4.2,1.7c-0.9,2.1-0.9,4.3,0.2,6.4c0.4,0.7,1.2,1.1,2,1.1c1.4,0.1,2.7,0,4.2,0
		c0.3-1.1,0.2-2.1,0-3.1c-1.3-0.4-2.7,0.1-3.9-0.5c-0.3-0.6-0.2-1.3,0-2.1C119.6,8.2,121.9,8.2,124.4,8.2z"/>
	<path style="display:inline;fill:#7C7B7D;" d="M144.8,2.3c0.4,0.5,0.3,0.9,0.3,1.4c0,0.3,0,0.6-0.3,0.9c-1.3,0.3-2.8-0.1-4.5,0.3
		c0,3.8,0,7.6,0,11.4c-1.2,0.3-2.1,0.2-3.2,0.1c0-3.9,0-7.7,0-11.4c-1.6-0.6-3.1,0.1-4.5-0.3c-0.4-0.8-0.3-1.5-0.1-2.4
		C136.6,2.3,140.6,2.3,144.8,2.3z"/>
	<path style="display:inline;fill:#7A7A7B;" d="M171.4,14c0.4,0.9,0.4,1.5,0,2.3c-2.2,0.2-4.6,0.3-6.8-0.3c-1.5-0.4-2.5-1.6-2.9-3.2
		c-0.4-1.5-0.3-3.1-0.3-4.6c0-2,0-3.9,0-5.9c1.1-0.3,1.9-0.3,2.8-0.1c0.6,0.5,0.4,1.2,0.4,1.7c0,2.2,0,4.4,0,6.6
		c0.1,2.8,0.7,3.4,3.4,3.4C169.1,14,170.2,14,171.4,14z"/>
	<path style="display:inline;fill:#7B7B7C;" d="M105.3,2.3c1.1-0.2,2-0.3,3,0.1c0,4.6,0,9.2,0,13.8c-1,0.4-1.9,0.2-3,0.1
		C105.3,11.7,105.3,7.1,105.3,2.3z"/>
	<path style="display:inline;fill:#79797C;" d="M127.4,2.3c1-0.3,1.9-0.1,2.9-0.1c0,4.8,0,9.4,0,14c-0.4,0.4-0.9,0.3-1.4,0.3
		c-0.5,0-1,0.1-1.6-0.2C127.4,11.7,127.4,7,127.4,2.3z"/>
	<path style="display:inline;fill:#78787A;" d="M38.4,10.2c-0.3-0.3-0.7-0.5-0.8-0.9C37.6,9.2,37.6,9,37.7,9c1.5-1,1.9-2.3,1.5-4
		c-0.4-1.7-1.7-2.3-3.2-2.5c-3.1-0.5-6.3-0.2-9.7-0.2c0,4.9-0.1,9.5,0.1,14.2c3.1,0,6.1,0,9,0c0.5,0,1.1-0.1,1.6-0.3
		C39.6,15.3,40.3,12,38.4,10.2z M29.6,4.9c1.7-0.2,3.4-0.2,5.1,0C35.6,5,36.1,5.6,36,6.5C36,7.5,35.4,8,34.6,8c-1.6,0.1-3.3,0-5,0
		C29.4,7,29.4,6,29.6,4.9z M34.3,13.9c-1.2,0.1-2.4,0-3.6,0c-0.3,0-0.7,0.1-1.2-0.2c-0.2-0.9-0.1-1.9-0.1-3.1c1.8,0,3.3,0,4.8,0
		c1,0,1.7,0.6,1.7,1.7C36.1,13.3,35.5,13.9,34.3,13.9z"/>
	<path style="display:inline;fill:#79787A;" d="M102.3,6c-0.6-1.9-1.9-3-3.8-3.5c-3.1-0.7-6.2-0.4-9.3-0.3c0,4.8,0,9.4,0,14.2
		c3.2-0.1,6.3,0.3,9.3-0.3c1.9-0.3,3.2-1.6,3.8-3.4C103.1,10.5,103,8.3,102.3,6z M99.2,11.7c-0.4,1.6-1.2,2.2-2.9,2.2
		c-1.3,0-2.6,0-4.1,0c0-3.2,0-6.1,0-9.2c1.8-0.3,3.6-0.3,5.3,0.2c0.9,0.2,1.4,1,1.6,1.8C99.6,8.4,99.6,10.1,99.2,11.7z"/>
	<path style="display:inline;fill:#78787A;" d="M52.2,10.6c0.3-0.2,0.5-0.3,0.7-0.4c1.8-1.1,2.4-2.8,1.9-5c-0.4-1.7-1.6-2.7-3.6-2.9
		c-2.9-0.3-5.8-0.1-8.9-0.1c0,4.9,0,9.5,0,14.2c1,0.1,1.8,0.2,2.7-0.1c0.4-1.8-0.1-3.6,0.4-5.4c1.2-0.2,2.3-0.2,3.4,0
		c1,1.3,1.7,2.7,2.5,4c1.1,1.8,1.9,2,4,1.1C54.4,14.1,52.9,12.6,52.2,10.6z M50.7,8.1c-1.8,0.5-3.5,0.3-5.3,0.2
		c-0.3-1.2-0.3-2.3,0-3.5c1.8-0.4,3.6-0.1,5.4,0.1c0.7,0.1,1.1,0.6,1.1,1.4C51.8,7.2,51.6,7.9,50.7,8.1z"/>
	<path style="display:inline;fill:#78787A;" d="M65.3,2.2c-1.2-0.1-2.1-0.2-3.3,0.1c-2,4.6-4,9.3-6.1,14c1.3,0.1,2.3,0.3,3.2-0.1
		c0.7-1,0.6-2.2,1.6-3.1c2,0,4.1-0.1,6.1,0.1c0.6,1.1,0.8,2.2,1.5,3.2c1,0,2,0.2,3.2-0.2C69.4,11.4,67.3,6.8,65.3,2.2z M61.5,10.6
		c0.5-2,1.3-3.5,2-5.4c1,1.8,1.6,3.5,2.2,5.3C64.2,10.8,63,10.5,61.5,10.6z"/>
	<path style="display:inline;fill:#78787A;" d="M154.2,2.2c-1.1,0-2.1-0.2-3.3,0.1c-1.9,4.6-4.1,9.1-6.1,14.1c1.3,0,2.2,0.2,3.1-0.1
		c0.5-1.1,0.9-2.1,1.4-3.1c2.2,0,4.3,0,6.3,0c0.8,1,0.8,2.2,1.6,3.2c1,0.1,1.9,0.2,3.2-0.1C158.3,11.5,156.3,6.9,154.2,2.2z
		 M150.4,10.5c0.4-1.8,1.2-3.4,2-5.4c0.9,2,1.7,3.6,2.1,5.6C153,10.6,151.9,10.7,150.4,10.5z"/>
</g>
<circle id="circle" style="display:none;fill:#F28E21;" cx="4.1" cy="8.3" r="13.3"/>
<path id="arrow" style="fill:#FFFFFF;" d="M7.5,12.2c0-1.2-0.7-1.7-1.7-1.8c-1.2-0.1-2.5-0.1-3.8-0.2c-0.9-0.1-2-0.1-2-1.3
	c0-1.2,1-1.3,1.9-1.4c1.1-0.1,2.2,0,3.2-0.1C6.1,7.3,7,7.2,7.4,6.2c0.4-0.9-0.2-1.6-0.7-2.3c-0.5-0.7-1.1-1.3-1.5-2
	C4.9,1.4,4.8,0.9,5.3,0.4c0.5-0.5,1.1-0.5,1.6-0.2c0.7,0.5,1.3,1,1.9,1.6c1.7,1.6,3.4,3.2,4.9,5c1.4,1.6,1.4,2.5,0,4.1
	c-2,2.1-4.1,4.3-6.3,6.1c-0.6,0.5-1.3,1-2.1,0.3c-0.8-0.7-0.4-1.5,0.1-2.3C6.2,14.1,7.3,13.4,7.5,12.2z"/>
<path id="spot" style="display:none;fill:#F3F3F3;" d="M-1.9,8.9c-0.2,1.1-0.8,1.8-1.9,1.7C-5,10.6-5.7,9.9-5.6,8.8
	C-5.6,7.7-4.9,7-3.7,7.1C-2.6,7.1-2,7.8-1.9,8.9z"/>
<rect x="26.3" y="1.9" style="display:none;fill:#0B0B0C;" width="145.5" height="14.5"/>
</svg>
