<?xml version="1.0" encoding="utf-8"?>
<!-- Generator: Adobe Illustrator 18.0.0, SVG Export Plug-In . SVG Version: 6.00 Build 0)  -->
<!DOCTYPE svg PUBLIC "-//W3C//DTD SVG 1.1//EN" "http://www.w3.org/Graphics/SVG/1.1/DTD/svg11.dtd">
<svg version="1.1" id="Layer_1" xmlns="http://www.w3.org/2000/svg" xmlns:xlink="http://www.w3.org/1999/xlink" x="0px" y="0px"
	 viewBox="0 0 145.4 14.4" enable-background="new 0 0 145.4 14.4" xml:space="preserve">
<g id="logo">
	<path fill="#79787A" d="M46.7,0.3C48,0,49.1,0.2,50.4,0.2c1.9,3.1,3.8,6.3,5.7,9.5c0.1,0,0.2-0.1,0.3-0.1c0-3,0-6,0-9.1
		c1-0.6,1.9-0.4,2.9-0.2c0,4.6,0,9.2,0,13.8c-0.5,0.5-1.1,0.3-1.7,0.3c-0.5,0-1.1,0-1.7,0c-2-3.3-4-6.7-5.9-10
		c-0.1,0-0.2,0.1-0.3,0.1c0,3.2,0,6.4,0,9.5c-1.3,0.4-1.3,0.4-3.1,0.2C46.7,9.7,46.7,5,46.7,0.3z"/>
	<path fill="#78787A" d="M98.1,6.2c0,2.8,0,5.4,0,8.2c-3.3,0.1-6.4,0.4-9.6-0.3c-2-0.4-3.3-2-3.7-4c-0.4-1.8-0.4-3.7,0.1-5.5
		c0.6-2.4,2.2-3.8,4.6-4.2c2.8-0.4,5.6-0.2,8.4-0.2c0.5,0.8,0.4,1.5,0.2,2.2c-0.9,0.4-1.8,0.2-2.6,0.2c-0.9,0-1.8,0-2.7,0
		c-1.6,0-3.4-0.1-4.2,1.7c-0.9,2.1-0.9,4.3,0.2,6.4c0.4,0.7,1.2,1.1,2,1.1c1.4,0.1,2.7,0,4.2,0c0.3-1.1,0.2-2.1,0-3.1
		c-1.3-0.4-2.7,0.1-3.9-0.5c-0.3-0.6-0.2-1.3,0-2.1C93.3,6.2,95.6,6.2,98.1,6.2z"/>
	<path fill="#7C7B7D" d="M118.5,0.3c0.4,0.5,0.3,0.9,0.3,1.4c0,0.3,0,0.6-0.3,0.9c-1.3,0.3-2.8-0.1-4.5,0.3c0,3.8,0,7.6,0,11.4
		c-1.2,0.3-2.1,0.2-3.2,0.1c0-3.9,0-7.7,0-11.4c-1.6-0.6-3.1,0.1-4.5-0.3c-0.4-0.8-0.3-1.5-0.1-2.4C110.2,0.3,114.3,0.3,118.5,0.3z"
		/>
	<path fill="#7A7A7B" d="M145.1,12c0.4,0.9,0.4,1.5,0,2.3c-2.2,0.2-4.6,0.3-6.8-0.3c-1.5-0.4-2.5-1.6-2.9-3.2
		c-0.4-1.5-0.3-3.1-0.3-4.6c0-2,0-3.9,0-5.9c1.1-0.3,1.9-0.3,2.8-0.1c0.6,0.5,0.4,1.2,0.4,1.7c0,2.2,0,4.4,0,6.6
		c0.1,2.8,0.7,3.4,3.4,3.4C142.8,12,143.9,12,145.1,12z"/>
	<path fill="#7B7B7C" d="M79,0.3c1.1-0.2,2-0.3,3,0.1c0,4.6,0,9.2,0,13.8c-1,0.4-1.9,0.2-3,0.1C79,9.7,79,5.1,79,0.3z"/>
	<path fill="#79797C" d="M101.1,0.3c1-0.3,1.9-0.1,2.9-0.1c0,4.8,0,9.4,0,14c-0.4,0.4-0.9,0.3-1.4,0.3c-0.5,0-1,0.1-1.6-0.2
		C101.1,9.7,101.1,5,101.1,0.3z"/>
	<path fill="#78787A" d="M12,8.2c-0.3-0.3-0.7-0.5-0.8-0.9C11.3,7.2,11.3,7,11.4,7c1.5-1,1.9-2.3,1.5-4c-0.4-1.7-1.7-2.3-3.2-2.5
		C6.6-0.1,3.5,0.2,0,0.2c0,4.9-0.1,9.5,0.1,14.2c3.1,0,6.1,0,9,0c0.5,0,1.1-0.1,1.6-0.3C13.3,13.3,14,10,12,8.2z M3.3,2.9
		c1.7-0.2,3.4-0.2,5.1,0C9.3,3,9.7,3.6,9.7,4.5C9.7,5.5,9.1,6,8.3,6c-1.6,0.1-3.3,0-5,0C3.1,5,3.1,4,3.3,2.9z M8,11.9
		c-1.2,0.1-2.4,0-3.6,0c-0.3,0-0.7,0.1-1.2-0.2c-0.2-0.9-0.1-1.9-0.1-3.1c1.8,0,3.3,0,4.8,0c1,0,1.7,0.6,1.7,1.7
		C9.8,11.3,9.2,11.9,8,11.9z"/>
	<path fill="#79787A" d="M76,4c-0.6-1.9-1.9-3-3.8-3.5c-3.1-0.7-6.2-0.4-9.3-0.3c0,4.8,0,9.4,0,14.2c3.2-0.1,6.3,0.3,9.3-0.3
		c1.9-0.3,3.2-1.6,3.8-3.4C76.8,8.5,76.7,6.3,76,4z M72.9,9.7c-0.4,1.6-1.2,2.2-2.9,2.2c-1.3,0-2.6,0-4.1,0c0-3.2,0-6.1,0-9.2
		c1.8-0.3,3.6-0.3,5.3,0.2c0.9,0.2,1.4,1,1.6,1.8C73.3,6.4,73.3,8.1,72.9,9.7z"/>
	<path fill="#78787A" d="M25.8,8.6c0.3-0.2,0.5-0.3,0.7-0.4c1.8-1.1,2.4-2.8,1.9-5c-0.4-1.7-1.6-2.7-3.6-2.9C21.9,0,19,0.2,16,0.2
		c0,4.9,0,9.5,0,14.2c1,0.1,1.8,0.2,2.7-0.1c0.4-1.8-0.1-3.6,0.4-5.4c1.2-0.2,2.3-0.2,3.4,0c1,1.3,1.7,2.7,2.5,4
		c1.1,1.8,1.9,2,4,1.1C28.1,12.1,26.6,10.6,25.8,8.6z M24.4,6.1c-1.8,0.5-3.5,0.3-5.3,0.2c-0.3-1.2-0.3-2.3,0-3.5
		c1.8-0.4,3.6-0.1,5.4,0.1c0.7,0.1,1.1,0.6,1.1,1.4C25.5,5.2,25.3,5.9,24.4,6.1z"/>
	<path fill="#78787A" d="M39,0.2c-1.2-0.1-2.1-0.2-3.3,0.1c-2,4.6-4,9.3-6.1,14c1.3,0.1,2.3,0.3,3.2-0.1c0.7-1,0.6-2.2,1.6-3.1
		c2,0,4.1-0.1,6.1,0.1c0.6,1.1,0.8,2.2,1.5,3.2c1,0,2,0.2,3.2-0.2C43.1,9.4,41,4.8,39,0.2z M35.1,8.6c0.5-2,1.3-3.5,2-5.4
		c1,1.8,1.6,3.5,2.2,5.3C37.9,8.8,36.7,8.5,35.1,8.6z"/>
	<path fill="#78787A" d="M127.9,0.2c-1.1,0-2.1-0.2-3.3,0.1c-1.9,4.6-4.1,9.1-6.1,14.1c1.3,0,2.2,0.2,3.1-0.1
		c0.5-1.1,0.9-2.1,1.4-3.1c2.2,0,4.3,0,6.3,0c0.8,1,0.8,2.2,1.6,3.2c1,0.1,1.9,0.2,3.2-0.1C132,9.5,130,4.9,127.9,0.2z M124.1,8.5
		c0.4-1.8,1.2-3.4,2-5.4c0.9,2,1.7,3.6,2.1,5.6C126.7,8.6,125.5,8.7,124.1,8.5z"/>
</g>
<circle id="circle" display="none" fill="#F28E21" cx="-22.2" cy="6.3" r="13.3"/>
<path id="arrow" fill="#D8D8D8" d="M-18.9,10.2c0-1.2-0.7-1.7-1.7-1.8c-1.2-0.1-2.5-0.1-3.8-0.2c-0.9-0.1-2-0.1-2-1.3
	c0-1.2,1-1.3,1.9-1.4c1.1-0.1,2.2,0,3.2-0.1c0.9-0.1,1.8-0.2,2.2-1.2c0.4-0.9-0.2-1.6-0.7-2.3c-0.5-0.7-1.1-1.3-1.5-2
	c-0.3-0.5-0.3-1.1,0.1-1.5c0.5-0.5,1.1-0.5,1.6-0.2c0.7,0.5,1.3,1,1.9,1.6c1.7,1.6,3.4,3.2,4.9,5c1.4,1.6,1.4,2.5,0,4.1
	c-2,2.1-4.1,4.3-6.3,6.1c-0.6,0.5-1.3,1-2.1,0.3c-0.8-0.7-0.4-1.5,0.1-2.3C-20.1,12.1-19,11.4-18.9,10.2z"/>
<path id="spot" display="none" fill="#F3F3F3" d="M-28.3,6.9c-0.2,1.1-0.8,1.8-1.9,1.7c-1.1-0.1-1.8-0.7-1.7-1.9
	c0.1-1.1,0.8-1.8,1.9-1.7C-28.9,5.1-28.4,5.8-28.3,6.9z"/>
<rect x="-0.1" y="-0.1" display="none" fill="#0B0B0C" width="145.5" height="14.5"/>
</svg>
