<?xml version="1.0" encoding="utf-8"?>
<!-- Generator: Adobe Illustrator 18.0.0, SVG Export Plug-In . SVG Version: 6.00 Build 0)  -->
<!DOCTYPE svg PUBLIC "-//W3C//DTD SVG 1.1//EN" "http://www.w3.org/Graphics/SVG/1.1/DTD/svg11.dtd">
<svg version="1.1" id="Layer_1" xmlns="http://www.w3.org/2000/svg" xmlns:xlink="http://www.w3.org/1999/xlink" x="0px" y="0px"
	 viewBox="0 0 26.5 26.5" style="enable-background:new 0 0 26.5 26.5;" xml:space="preserve">
<g id="logo">
	<path style="fill:#79787A;" d="M82.1,7.3c1.3-0.2,2.4-0.1,3.7-0.1c1.9,3.1,3.8,6.3,5.7,9.5c0.1,0,0.2-0.1,0.3-0.1c0-3,0-6,0-9.1
		c1-0.6,1.9-0.4,2.9-0.2c0,4.6,0,9.2,0,13.8c-0.5,0.5-1.1,0.3-1.7,0.3c-0.5,0-1.1,0-1.7,0c-2-3.3-4-6.7-5.9-10
		c-0.1,0-0.2,0.1-0.3,0.1c0,3.2,0,6.4,0,9.5c-1.3,0.4-1.3,0.4-3.1,0.2C82.1,16.6,82.1,12,82.1,7.3z"/>
	<path style="fill:#78787A;" d="M133.5,13.2c0,2.8,0,5.4,0,8.2c-3.3,0.1-6.4,0.4-9.6-0.3c-2-0.4-3.3-2-3.7-4
		c-0.4-1.8-0.4-3.7,0.1-5.5c0.6-2.4,2.2-3.8,4.6-4.2c2.8-0.4,5.6-0.2,8.4-0.2c0.5,0.8,0.4,1.5,0.2,2.2c-0.9,0.4-1.8,0.2-2.6,0.2
		c-0.9,0-1.8,0-2.7,0c-1.6,0-3.4-0.1-4.2,1.7c-0.9,2.1-0.9,4.3,0.2,6.4c0.4,0.7,1.2,1.1,2,1.1c1.4,0.1,2.7,0,4.2,0
		c0.3-1.1,0.2-2.1,0-3.1c-1.3-0.4-2.7,0.1-3.9-0.5c-0.3-0.6-0.2-1.3,0-2.1C128.7,13.2,131,13.2,133.5,13.2z"/>
	<path style="fill:#7C7B7D;" d="M153.9,7.3c0.4,0.5,0.3,0.9,0.3,1.4c0,0.3,0,0.6-0.3,0.9c-1.3,0.3-2.8-0.1-4.5,0.3
		c0,3.8,0,7.6,0,11.4c-1.2,0.3-2.1,0.2-3.2,0.1c0-3.9,0-7.7,0-11.4c-1.6-0.6-3.1,0.1-4.5-0.3c-0.4-0.8-0.3-1.5-0.1-2.4
		C145.7,7.3,149.8,7.3,153.9,7.3z"/>
	<path style="fill:#7A7A7B;" d="M180.5,19c0.4,0.9,0.4,1.5,0,2.3c-2.2,0.2-4.6,0.3-6.8-0.3c-1.5-0.4-2.5-1.6-2.9-3.2
		c-0.4-1.5-0.3-3.1-0.3-4.6c0-2,0-3.9,0-5.9c1.1-0.3,1.9-0.3,2.8-0.1c0.6,0.5,0.4,1.2,0.4,1.7c0,2.2,0,4.4,0,6.6
		c0.1,2.8,0.7,3.4,3.4,3.4C178.2,19,179.3,19,180.5,19z"/>
	<path style="fill:#7B7B7C;" d="M114.4,7.3c1.1-0.2,2-0.3,3,0.1c0,4.6,0,9.2,0,13.8c-1,0.4-1.9,0.2-3,0.1
		C114.4,16.7,114.4,12.1,114.4,7.3z"/>
	<path style="fill:#79797C;" d="M136.5,7.3c1-0.3,1.9-0.1,2.9-0.1c0,4.8,0,9.4,0,14c-0.4,0.4-0.9,0.3-1.4,0.3c-0.5,0-1,0.1-1.6-0.2
		C136.5,16.6,136.5,12,136.5,7.3z"/>
	<path style="fill:#78787A;" d="M47.5,15.2c-0.3-0.3-0.7-0.5-0.8-0.9c0.1-0.1,0.1-0.3,0.2-0.3c1.5-1,1.9-2.3,1.5-4
		c-0.4-1.7-1.7-2.3-3.2-2.5c-3.1-0.5-6.3-0.2-9.7-0.2c0,4.9-0.1,9.5,0.1,14.2c3.1,0,6.1,0,9,0c0.5,0,1.1-0.1,1.6-0.3
		C48.7,20.3,49.4,17,47.5,15.2z M38.7,9.9c1.7-0.2,3.4-0.2,5.1,0c0.9,0.1,1.3,0.7,1.3,1.6c0,0.9-0.6,1.5-1.4,1.5c-1.6,0.1-3.3,0-5,0
		C38.5,11.9,38.6,11,38.7,9.9z M43.5,18.9c-1.2,0.1-2.4,0-3.6,0c-0.3,0-0.7,0.1-1.2-0.2c-0.2-0.9-0.1-1.9-0.1-3.1c1.8,0,3.3,0,4.8,0
		c1,0,1.7,0.6,1.7,1.7C45.2,18.3,44.6,18.8,43.5,18.9z"/>
	<path style="fill:#79787A;" d="M111.4,11c-0.6-1.9-1.9-3-3.8-3.5c-3.1-0.7-6.2-0.4-9.3-0.3c0,4.8,0,9.4,0,14.2
		c3.2-0.1,6.3,0.3,9.3-0.3c1.9-0.3,3.2-1.6,3.8-3.4C112.2,15.5,112.1,13.3,111.4,11z M108.3,16.7c-0.4,1.6-1.2,2.2-2.9,2.2
		c-1.3,0-2.6,0-4.1,0c0-3.2,0-6.1,0-9.2c1.8-0.3,3.6-0.3,5.3,0.2c0.9,0.2,1.4,1,1.6,1.8C108.7,13.4,108.7,15.1,108.3,16.7z"/>
	<path style="fill:#78787A;" d="M61.3,15.6c0.3-0.2,0.5-0.3,0.7-0.4c1.8-1.1,2.4-2.8,1.9-5c-0.4-1.7-1.6-2.7-3.6-2.9
		c-2.9-0.3-5.8-0.1-8.9-0.1c0,4.9,0,9.5,0,14.2c1,0.1,1.8,0.2,2.7-0.1c0.4-1.8-0.1-3.6,0.4-5.4c1.2-0.2,2.3-0.2,3.4,0
		c1,1.3,1.7,2.7,2.5,4c1.1,1.8,1.9,2,4,1.1C63.5,19.1,62.1,17.5,61.3,15.6z M59.8,13.1c-1.8,0.5-3.5,0.3-5.3,0.2
		c-0.3-1.2-0.3-2.3,0-3.5c1.8-0.4,3.6-0.1,5.4,0.1c0.7,0.1,1.1,0.6,1.1,1.4C60.9,12.2,60.7,12.9,59.8,13.1z"/>
	<path style="fill:#78787A;" d="M74.4,7.2c-1.2-0.1-2.1-0.2-3.3,0.1c-2,4.6-4,9.3-6.1,14c1.3,0.1,2.3,0.3,3.2-0.1
		c0.7-1,0.6-2.2,1.6-3.1c2,0,4.1-0.1,6.1,0.1c0.6,1.1,0.8,2.2,1.5,3.2c1,0,2,0.2,3.2-0.2C78.5,16.4,76.4,11.8,74.4,7.2z M70.6,15.6
		c0.5-2,1.3-3.5,2-5.4c1,1.8,1.6,3.5,2.2,5.3C73.4,15.8,72.1,15.5,70.6,15.6z"/>
	<path style="fill:#78787A;" d="M163.3,7.2c-1.1,0-2.1-0.2-3.3,0.1c-1.9,4.6-4.1,9.1-6.1,14.1c1.3,0,2.2,0.2,3.1-0.1
		c0.5-1.1,0.9-2.1,1.4-3.1c2.2,0,4.3,0,6.3,0c0.8,1,0.8,2.2,1.6,3.2c1,0.1,1.9,0.2,3.2-0.1C167.5,16.5,165.4,11.8,163.3,7.2z
		 M159.5,15.5c0.4-1.8,1.2-3.4,2-5.4c0.9,2,1.7,3.6,2.1,5.6C162.1,15.6,161,15.7,159.5,15.5z"/>
</g>
<circle id="circle" style="fill:#F28E21;" cx="13.2" cy="13.2" r="13.3"/>
<path id="arrow" style="display:none;fill:#FFFFFF;" d="M16.6,17.2c0-1.2-0.7-1.7-1.7-1.8c-1.2-0.1-2.5-0.1-3.8-0.2
	c-0.9-0.1-2-0.1-2-1.3c0-1.2,1-1.3,1.9-1.4c1.1-0.1,2.2,0,3.2-0.1c0.9-0.1,1.8-0.2,2.2-1.2c0.4-0.9-0.2-1.6-0.7-2.3
	c-0.5-0.7-1.1-1.3-1.5-2c-0.3-0.5-0.3-1.1,0.1-1.5c0.5-0.5,1.1-0.5,1.6-0.2c0.7,0.5,1.3,1,1.9,1.6c1.7,1.6,3.4,3.2,4.9,5
	c1.4,1.6,1.4,2.5,0,4.1c-2,2.1-4.1,4.3-6.3,6.1c-0.6,0.5-1.3,1-2.1,0.3c-0.8-0.7-0.4-1.5,0.1-2.3C15.3,19.1,16.4,18.4,16.6,17.2z"/>
<path id="spot" style="display:none;fill:#F3F3F3;" d="M7.2,13.9C7,15,6.4,15.7,5.2,15.6c-1.1-0.1-1.8-0.7-1.7-1.9
	c0.1-1.1,0.8-1.8,1.9-1.7C6.5,12.1,7.1,12.8,7.2,13.9z"/>
<rect x="35.4" y="6.9" style="display:none;fill:#0B0B0C;" width="145.5" height="14.5"/>
</svg>
