<?xml version="1.0" encoding="utf-8"?>
<!-- Generator: Adobe Illustrator 18.0.0, SVG Export Plug-In . SVG Version: 6.00 Build 0)  -->
<!DOCTYPE svg PUBLIC "-//W3C//DTD SVG 1.1//EN" "http://www.w3.org/Graphics/SVG/1.1/DTD/svg11.dtd">
<svg version="1.1" id="Layer_1" xmlns="http://www.w3.org/2000/svg" xmlns:xlink="http://www.w3.org/1999/xlink" x="0px" y="0px"
	 viewBox="0 0 8.2 8" enable-background="new 0 0 8.2 8" xml:space="preserve">
<g id="logo">
	<path fill="#79787A" stroke="#878787" stroke-width="0.5" stroke-miterlimit="10" d="M175.5-10.9c2.9-0.5,5.4-0.3,8.3-0.2
		c4.2,7,8.5,14.1,12.7,21.2c0.4-0.1,0.3-0.1,0.7-0.2l0-20.3c1.9-1.1,3.6-1,5.6-0.6c0.6,0.1,1,0.6,1,1.2V20c-1.1,1.1-2.5,0.6-3.8,0.7
		c-1.2,0.1-2.4,0-3.8,0c-4.4-7.5-8.8-14.8-13.2-22.2c-0.4,0.1-0.3,0.1-0.7,0.2v21.2c-3,1-3,1-6.8,0.4V-10.9z"/>
	<path fill="#78787A" stroke="#878787" stroke-width="0.5" stroke-miterlimit="10" d="M290.1,2.3c0,6.2,0,12,0,18.2
		c-7.3,0.1-14.4,0.9-21.3-0.6c-4.5-1-7.3-4.4-8.3-8.9c-0.9-4.1-0.8-8.2,0.2-12.3c1.3-5.4,4.9-8.4,10.3-9.3c6.2-1,12.5-0.5,18.7-0.5
		c1.1,1.8,0.9,3.3,0.4,4.9c-1.9,0.9-3.9,0.4-5.9,0.5c-2,0.1-4,0-6,0c-3.7,0-7.5-0.2-9.3,3.9c-2,4.7-2.1,9.6,0.4,14.3
		c0.9,1.6,2.6,2.4,4.4,2.5c3,0.1,6.1,0,9.3,0c0.6-2.5,0.5-4.7,0.1-7c-2.9-0.9-6,0.2-8.7-1c-0.7-1.4-0.5-2.9-0.1-4.6
		C279.4,2.3,284.7,2.3,290.1,2.3z"/>
	<path fill="#7C7B7D" stroke="#878787" stroke-width="0.5" stroke-miterlimit="10" d="M335.6-10.9c0.8,1.2,0.6,2.1,0.6,3
		c0,0.7,0,1.3-0.7,2.1c-3,0.7-6.4-0.3-10.1,0.7c0,8.5,0,16.9,0,25.4c-2.6,0.7-4.6,0.5-7.2,0.1c0-8.7,0-17.1,0-25.4
		c-3.6-1.4-6.8,0.3-10-0.6c-0.8-1.7-0.7-3.4-0.1-5.3C317.3-10.9,326.4-10.9,335.6-10.9z"/>
	<path fill="#7A7A7B" stroke="#878787" stroke-width="0.5" stroke-miterlimit="10" d="M395,15.3c0.8,2,0.9,3.4,0,5.1
		c-5,0.4-10.2,0.7-15.2-0.6c-3.4-0.9-5.6-3.5-6.4-7c-0.8-3.4-0.6-6.9-0.6-10.4c0-4.4,0-8.7,0-13.1c2.4-0.7,4.3-0.6,6.2-0.3
		c1.3,1.2,0.8,2.6,0.8,3.9c0.1,4.9,0,9.9,0.1,14.8c0.1,6.2,1.5,7.5,7.6,7.6C389.9,15.3,392.4,15.3,395,15.3z"/>
	<path fill="#7B7B7C" stroke="#878787" stroke-width="0.5" stroke-miterlimit="10" d="M247.6-10.9c2.4-0.3,4.4-0.6,6.7,0.3
		c0,10.3,0,20.5,0,30.9c-2.2,0.8-4.3,0.5-6.7,0.3C247.6,10.1,247.6-0.2,247.6-10.9z"/>
	<path fill="#79797C" stroke="#878787" stroke-width="0.5" stroke-miterlimit="10" d="M296.8-10.9c2.3-0.6,4.3-0.2,6.6-0.3
		c0,10.6,0,20.9,0,31.2c-0.9,0.9-2,0.6-3.1,0.6c-1.1,0-2.1,0.2-3.5-0.5C296.8,10,296.8-0.3,296.8-10.9z"/>
	<path fill="#78787A" stroke="#878787" stroke-width="0.5" stroke-miterlimit="10" d="M98.2,6.7c-0.7-0.6-1.6-1-1.8-2
		c0.1-0.2,0.2-0.6,0.4-0.7c3.4-2.2,4.3-5.2,3.4-9c-0.9-3.7-3.7-5.1-7-5.6c-7-1.1-14.1-0.5-21.7-0.5c0.1,10.9-0.3,21.2,0.2,31.7
		c7,0,13.6,0,20.1,0c1.2,0,2.4-0.3,3.5-0.6C100.9,18.1,102.5,10.8,98.2,6.7z M78.6-5c3.8-0.5,7.6-0.3,11.4,0C92-4.9,93-3.5,93-1.5
		c-0.1,2.1-1.4,3.3-3.2,3.4C86.1,2.1,82.4,2,78.7,2C78.2-0.5,78.3-2.6,78.6-5z M89.2,15.1c-2.6,0.1-5.3,0.1-8,0
		c-0.8,0-1.6,0.2-2.6-0.5c-0.5-2-0.2-4.1-0.2-6.9c4,0,7.4-0.1,10.8,0C91.6,7.8,93,9,93,11.5C93.1,13.7,91.8,14.9,89.2,15.1z"/>
	<path fill="#79787A" stroke="#878787" stroke-width="0.5" stroke-miterlimit="10" d="M240.8-2.5c-1.4-4.2-4.3-6.8-8.4-7.8
		c-6.8-1.6-13.7-0.8-20.7-0.7c0,10.7,0,21,0,31.7c7.2-0.1,14,0.6,20.7-0.6c4.3-0.8,7.1-3.6,8.5-7.6C242.7,7.4,242.4,2.4,240.8-2.5z
		 M233.9,10.2c-0.8,3.5-2.8,4.8-6.4,4.9c-2.9,0.1-5.8,0-9.2,0c0-7.1,0-13.6,0-20.5c4.1-0.6,8-0.6,11.9,0.4c2,0.5,3,2.2,3.5,4.1
		C234.8,2.8,234.8,6.6,233.9,10.2z"/>
	<path fill="#78787A" stroke="#878787" stroke-width="0.5" stroke-miterlimit="10" d="M129,7.6c0.6-0.3,1.1-0.6,1.5-0.9
		c4-2.5,5.4-6.2,4.3-11.1c-0.8-3.7-3.5-6-8.1-6.5c-6.5-0.7-13-0.3-19.8-0.3c0,10.9,0,21.3,0,31.6c2.2,0.2,4,0.4,6-0.1
		c1-4-0.3-8,0.8-12c2.7-0.5,5.1-0.5,7.6-0.1c2.3,2.8,3.7,6,5.5,9c2.4,3.9,4.3,4.5,8.9,2.5C134,15.5,130.7,12,129,7.6z M125.6,2.2
		c-3.9,1.1-7.9,0.6-11.9,0.4c-0.7-2.7-0.6-5.2,0-7.8c4.1-0.9,8-0.3,11.9,0.3c1.6,0.2,2.5,1.4,2.6,3.1C128.2,0,127.7,1.6,125.6,2.2z"
		/>
	<path fill="#78787A" stroke="#878787" stroke-width="0.5" stroke-miterlimit="10" d="M157.6-11.1c-2.2-0.1-4.1-0.3-6.3,0.2
		c-0.3,0.1-0.6,0.3-0.7,0.6c-4.5,10.2-8.9,20.3-13.5,30.8c2.8,0.2,5,0.6,7.1-0.3c1.6-2.2,1.4-5,3.6-7c4.5,0.1,9.1-0.2,13.7,0.2
		c1.4,2.4,1.9,5,3.4,7.1c2.2,0.1,4.4,0.5,7.1-0.4c-4.6-10.4-9.1-20.6-13.6-30.6C158.4-10.8,158-11.1,157.6-11.1z M149.7,7.6
		c1.1-4.4,2.8-7.9,4.5-12.1c2.3,4.1,3.6,7.7,4.9,11.7C155.9,8,153.1,7.5,149.7,7.6z"/>
	<path fill="#78787A" stroke="#878787" stroke-width="0.5" stroke-miterlimit="10" d="M356.7-11.1c-2.5-0.1-4.8-0.4-7.4,0.3
		c-4.3,10.2-9.2,20.3-13.5,31.4c2.8,0,4.9,0.4,7-0.3c1.1-2.4,2.1-4.7,3-6.9c4.9,0,9.6,0,14.1,0c1.7,2.3,1.8,5,3.6,7.1
		c2.1,0.2,4.3,0.5,7.1-0.3C365.9,9.6,361.3-0.7,356.7-11.1z M348.3,7.4c0.9-4.1,2.8-7.7,4.5-12.1c1.9,4.5,3.8,8,4.8,12.4
		C354.1,7.6,351.4,7.9,348.3,7.4z"/>
</g>
<circle id="circle" display="none" fill="#F28E21" cx="21.8" cy="2.7" r="29.6"/>
<path id="arrow" fill="#FDFDFD" d="M29.2,11.4c0.1-2.7-1.6-3.7-3.8-4C22.7,7.1,19.8,7.3,17,7c-2-0.1-4.4-0.3-4.5-2.9
	c-0.1-2.7,2.3-3,4.3-3.2c2.4-0.2,4.8-0.1,7.2-0.2c2-0.1,4.1-0.5,5-2.7c0.8-2.1-0.5-3.5-1.7-5c-1.2-1.5-2.3-2.9-3.3-4.5
	c-0.7-1.1-0.7-2.4,0.3-3.3c1.1-1.1,2.5-1.2,3.7-0.4c1.5,1.1,3,2.2,4.3,3.5c3.7,3.6,7.5,7.2,11,11.1c3.2,3.5,3.2,5.6,0,9.1
	c-4.5,4.8-9.1,9.5-14.1,13.7c-1.4,1.1-2.9,2.3-4.6,0.7c-1.7-1.6-1-3.4,0.2-5.1C26.4,15.7,28.9,14.2,29.2,11.4z"/>
<path id="spot" fill="#F3F3F3" d="M8.2,4.2C7.8,6.7,6.4,8.1,3.9,8C1.4,7.9-0.1,6.3,0,3.8C0.1,1.3,1.7-0.1,4.2,0
	C6.7,0.1,8,1.7,8.2,4.2z"/>
</svg>
