<?xml version="1.0" encoding="utf-8"?>
<!-- Generator: Adobe Illustrator 18.0.0, SVG Export Plug-In . SVG Version: 6.00 Build 0)  -->
<!DOCTYPE svg PUBLIC "-//W3C//DTD SVG 1.1//EN" "http://www.w3.org/Graphics/SVG/1.1/DTD/svg11.dtd">
<svg version="1.1" id="Layer_1" xmlns="http://www.w3.org/2000/svg" xmlns:xlink="http://www.w3.org/1999/xlink" x="0px" y="0px"
	 viewBox="0 0 189.9 35.1" style="enable-background:new 0 0 189.9 35.1;" xml:space="preserve">
<rect x="-37.3" y="-24.4" style="display:none;fill:#040506;stroke:#000000;stroke-miterlimit:10;" width="246" height="96"/>
<g>
	<path style="fill:#D3D2D2;" d="M91.1,35.1c0.1-1.3-0.4-2.7,0.7-3.8c2.1,1.9,5.2,1.1,7.3,2.9c0,0.3,0,0.6,0,0.9
		C96.4,35.1,93.8,35.1,91.1,35.1z"/>
	<path style="fill:#FFFEFE;" d="M54.6,20.6c2.9-3.8,4.4-7.7,5.8-11.4c1.5-4,3.8-5.2,8.1-3.9c-2.5,5.7-4.8,11.4-7.4,16.9
		c-1.6,3.3-10.7,5.9-13.5,3.9c-1.9-1.3-0.1-4.1-1.7-7c-2.5,7.6-8.3,7.2-13.9,7.1c-1.4,0-2.1-0.3-2.2-1.9c-0.2-5.6-0.4-11.2-0.8-16.8
		c-0.2-2.4,1-3.1,2.8-2.5c1.9,0.5,5.1-2.1,5.5,2.1c0.4,4.2,0.6,8.5,0.8,12.8c2.2,0,2-1.8,2.6-3c1.3-2.8,2.5-5.6,3.7-8.5
		c1.4-3.1,4.9-4.5,8.2-3.5c1.7,0.5,1.2,1.8,1.2,2.9C53.9,11.8,53.6,15.9,54.6,20.6z"/>
	<path style="fill:#FEFEFE;" d="M79.2,10.2c1.8,2.4,4.1,2.3,6.2,2.9c2.7,0.8,5.7,1.8,5.4,5.4c-0.3,3.6-1.8,6.3-6,7
		c-6.1,1-12.1,0.3-18.1,0.6c-0.5-4.9,1.7-6.2,6.1-5.7c2.8,0.3,5.7,0.1,9.7,0.1c-3.2-3-6.1-2.3-8.4-3.3c-2.4-1-5.2-1.5-5.1-5.1
		c0.1-3.5,1.5-6,5.1-6.8C79.3,4.3,84.6,5,89.9,4.8C91.7,4.8,91.2,6,91.1,7c-0.2,1.5,0.2,3.4-2.4,3.3C85.6,10.1,82.4,10.2,79.2,10.2z
		"/>
	<path style="fill:#FEFEFE;" d="M179.9,26.2c-1.1-0.2-3-0.4-4.8-0.7c-4.8-0.8-6.1-2.9-5.1-7.7c0.3-1.7,0.6-3.5,0.9-5.2
		c0.3-1.4,0.6-2.8-1.5-2.8c-1.4,0-2-0.6-1.6-1.9c0.4-1.1,0.1-2.8,2-3c0.9-0.1,2.3,0.4,2.4-1.2c0.3-5,4-3.4,6.8-3.6
		c0.9,0,2.1-0.1,1.9,1.1c-1.1,5.2,2.8,3.1,5.1,3.7c1.3,0.4,3.8-1.7,3.9,1.7c0.1,3.2-1.9,3.4-4.1,3c-5.1-0.9-7,1.3-7.4,6.2
		c-0.2,3.2,0.5,4.8,3.9,4.8c1.5,0,3.7-0.9,3.3,2.4c-0.3,2.4-0.9,3.6-3.4,3.2C181.7,26.1,181.2,26.2,179.9,26.2z"/>
	<path style="fill:#FDFDFD;" d="M147.2,25.9c0.6-3.4,1.3-6.4,1.7-9.5C150,6.2,153,4.7,163.2,4.5c3-0.1,2.9,1.2,2.7,3.4
		c-0.2,2.1-1.6,1.8-2.8,1.8c-3.3,0.1-5.3,1.4-5.4,5c0,1.5-0.5,2.9-0.8,4.4C155.6,26.7,155.6,26.7,147.2,25.9z"/>
	<path style="fill:#FEFEFE;" d="M111.8,5c-4.3-0.3-8.6,0-12.8-0.1c-2-0.1-3,0.7-3.3,2.6c-1.3,8-2.6,15.9-3.9,23.9
		c0.8,5.1,4.8,2.1,7.3,2.9c0.3-0.7,0.7-1.4,0.7-2.1c0-4.3,1.2-6.3,6.3-6.3c8.5,0,11.4-3.1,13.1-11.4C120.3,9,117.6,5.3,111.8,5z
		 M111.2,13.5c-0.4,5.5-1.9,7.2-6.5,7.1c-1.1-0.2-3.6,0.4-2.5-2c1.4-3-1.6-8.4,4.5-8.8C109.1,9.5,111.4,10,111.2,13.5z"/>
	<path style="fill:#FEFEFE;" d="M22.3,6C16.8,3.6,10.9,3.5,5.6,6.2C0.5,8.8-0.1,14.1,0,19.3c0,3.4,1.9,5.3,5.3,6.1
		c4.7,1.1,9.4,0.5,14.1,0.8c2.8,0.2,3-1.4,3.2-3.5c0.3-3-1.8-2-3.2-2.1c-3.7-0.4-7.6,0.9-11.1-1c0-0.5,0-0.9,0.1-1.4
		c4.5,0,8.9,0,13.4,0c1.1,0,2.4,0.4,3.2-0.9C26.6,14.6,25.1,7.2,22.3,6z M17,12c-1.4,1.2-3,0.4-4.6,0.6c-1,0.1-2.1,0.4-3.1-0.7
		c0.4-1.1,1.1-1.5,2-1.8c2-0.5,3.8-0.5,5.4,0.8C17,11,17.2,11.8,17,12z"/>
	<path style="fill:#FEFEFE;" d="M143.4,5.9c-5.4-2.2-11.1-2.4-16.3,0.2c-4.9,2.4-5.9,7.4-5.8,12.5c0.1,4.4,2.2,6.8,6.5,7.5
		c1.4,0.2,3,0,4.4,0c9.7,0.1,13.9-3.6,14.5-13.2C147,10.1,146.3,7.1,143.4,5.9z M138.3,13.4c-0.1,5.3-1.6,7.4-5.1,7.5
		c-2.4,0.1-3.9-0.6-3.9-3.4c0.1-5,2.2-7.9,5.8-7.8C137.7,9.8,138.9,11.1,138.3,13.4z"/>
</g>
</svg>
