<?xml version="1.0" encoding="utf-8"?>
<!-- Generator: Adobe Illustrator 18.0.0, SVG Export Plug-In . SVG Version: 6.00 Build 0)  -->
<!DOCTYPE svg PUBLIC "-//W3C//DTD SVG 1.1//EN" "http://www.w3.org/Graphics/SVG/1.1/DTD/svg11.dtd">
<svg version="1.1" id="Layer_1" xmlns="http://www.w3.org/2000/svg" xmlns:xlink="http://www.w3.org/1999/xlink" x="0px" y="0px"
	 viewBox="0 0 343.3 342.5" style="enable-background:new 0 0 343.3 342.5;" xml:space="preserve">
<g>
	<path style="fill:#105397;" d="M341.8,148.9c1.3,10.6,1.9,21.2,1.1,31.8c-0.9,12.7-2.7,25.2-6.2,37.4c-4.9,17.2-12.2,33.3-22.2,48
		c-16,23.6-36.3,42.5-61.7,55.9c-12,6.3-24.3,11.6-37.4,14.8c-23.2,5.7-46.4,7.5-70.3,3.5c-21.2-3.5-41-10.3-59.4-20.8
		C66.3,308.6,49.8,293.7,36,276c-12.5-16-21.7-33.9-28-53.2c-4-12.2-5.8-24.9-7.3-37.6c-1.6-13.4-0.4-26.6,1.3-39.7
		c1.6-12.1,4.3-24.1,9.7-35.3c5.2,8.5,7.6,18.2,10.9,27.5c0.5,1.4,0.3,3.2,2.6,2.5c4.8-1.8,6,2.4,6,4.9c0.1,3.9,1.9,6.8,3.3,10
		c-3.3,28.4,1.9,55.3,15.1,80.5c10.6,20.3,25.3,37,44.5,49.5c5.1,3.3,10.1,6.1,11.5,12.6c3.1,4,5.6,8.4,10.6,10.4
		c2.6,2,5.3,3.3,8.8,2.6c-8.4-7-9-9.6-3.2-15.9c5.8,1.7,11.5,3.9,17.4,5.6c20,5.6,40.1,5.5,60.2,1.4c22.7-4.7,42.6-14.9,60.1-30
		c2.3-2,5.2-3,7.7-4.5c1.5-0.7,3.1-1.4,4.7-1.4c10.5-0.2,15.3-7.2,18.9-15.7c0.3-0.6,0.3-1.5,0.8-1.8c5-3.3,4.4-8.4,4.5-13.3
		c1.7-2.5,3.9-4.5,6.4-6c1.6-1,2.8-2.3,3.4-4.1c2.1-6.8-2-12.9-2.1-19.5c1.9-7.8,7-13.3,12.9-18.2c1.8-1.7,3.6-3.3,4.9-5.5
		c1.5-2.9,2.9-5.9,4.1-9c0.5-1.4,1.7-3.3-1.3-3.6c-2.5,0.7-5.1,0.9-7.7,1.4c-0.8,0.1-1.5,0-2.2-0.3c-1.9-1.2-3.1-2.7-2.2-5.1
		c2.7-2.3,6.5-2.3,9.5-3.9c6.7-3.6,13.2-7.2,18.4-12.9C341,148.5,341.5,148.6,341.8,148.9z"/>
	<path style="fill:#9FE06B;" d="M25.9,142.1c-0.6,0.8-1.3,1.1-2,0.3c-2.7-3.2-2.9-7.9-4.8-10.8c-2.9-4.4,0.1-10.5-5.4-13.6
		c-2.9-1.6-1.7-5.1-1.9-7.8c0.9-5.2,3.2-9.8,6.2-14.1c1.6-2.2,2.3-5,4.1-7.1c2.6-8.7,8.2-15.5,13.6-22.5c6.2-8.1,13-15.6,20.9-22.2
		c3.5-1.5,6.8,0.4,10.3,0.6c1.8,0.1,3.5,1.2,5.4,0.1c-0.3-1.2-1.3-0.7-1.9-0.6c-1.7,0.1-3-0.2-3.4-2c-0.3-1.7,1.1-2.2,2.2-3
		c4.9-3.4,10.1-4.1,15.5-1.5c2.3,1.1,4.7,1.4,7.2,1.4c1.9-0.1,4.5-0.6,4.6,2.4c0.1,2.5,1.4,6-3,6.7c-0.5,0.1-0.8,0.4-0.9,0.4
		c1.7-0.4,3.7-1.1,5.3-2.7c1.4-1.4,3.2-1.6,5.1-0.7c1,0.6,1.7,1.6,0.8,2.4c-3,2.4-4.4,6.3-8.5,7.8c-3.7,1.3-6.4,4-5.5,8.7
		c-0.2,5,3.9,6.5,7.2,7.6c4.2,1.4,6.2,3.2,4.7,7.6c-0.3,0.9,0.1,2-0.1,2.9c-1.1,2.8-2.8,2.4-4.5,0.7c-1.1-1.1-1.5-2.6-2.4-3.7
		c-2.9-3.7-7.8-3.7-10.4,0.2c-1.9,3-4.9,5.6-4.3,9.7c1.6,2.1,4.7,0.8,6.3,2.9c0.9,2.3-0.8,3.5-2.2,4.7c-2.1,1.4-3.7,3-3.6,5.7
		c-0.3,3.5-2.5,3.9-5.3,3.1c-1.3-0.4-2.8-1.2-3.3,0.6c-2.1,7.4-6.4,14.2-5.6,22.3c-0.9,2.9-3.1,2.3-5.3,2.1
		c-4.8-0.6-8.2,1.3-9.7,5.8c-1.1,3.2-3.3,6.3-2.3,10c0.5,1.9,1,4,3.2,4.8c2.3,0.8,4.2-0.3,5.8-1.9c1.1-1.1,1.9-2.4,3.1-3.2
		c1.8-1.2,3.8-1.6,5.6-0.3c1.6,1.2,1,3,0.5,4.6c-0.4,1.1-0.8,2.2-1.3,3.3c-1,2.1-0.9,3.1,2,3.5c4.8,0.7,6,2.6,5.1,7.8
		c-0.5,3-0.9,5.6,2,7.5c0.3,0.4,0.4,0.9,0.4,1.4c-0.2,0.8-0.6,1.3-1.3,1.7c-4.1,1.5-5.9-1.7-8-4c-1.1-1.2-1.6-2.8-2.6-4.1
		c-0.8-2.2-2.9-2.1-4.7-2.6c-1.3-0.4-2.7-0.7-3.5-1.7c-2.4-3.2-5.6-3.6-9.2-3.1c-3.4-1.3-6.8-2.8-9.9-4.8c-2.1-1.3-5.2-3.2-4.7-5.4
		c1.3-6.7-4.2-10.1-6.5-15c-0.9-1.9-2-3.8-2.6-5.9c-0.2-0.6-0.9,0.4-0.3,0c0.1-0.1,0.2,0.1,0.3,0.4
		C23.7,133.5,25.8,137.5,25.9,142.1z"/>
	<path style="fill:#105398;" d="M102.8,45.9c-2.3-0.6-4.1,0.1-5.8,1.8c-2.8,2.7-5.8,2.4-8.9,0.1c1.3-1.2,2.3-0.1,3.3-0.1
		c2.2,0,3.5-1.6,3-3.8c-0.3-1.4,1.7-2,1.1-3.8c-4.4,0-8.8,0.4-13.2-2c-4.8-2.6-9.4,0.4-13.8,2.8c-0.7,0.4-1,0.6-0.7,1.4
		c1,2.3,2.6,0.2,3.8,0.5c1,0.3,2.7-2,3.1,0.3c0.3,1.6-0.3,3.7-2.8,3.7c-0.3,0-0.7,0-1,0c-4.8-0.9-9.5-1.8-14.3-2.6
		C67.1,34,79.3,26,92.2,19.1C105,12.3,118.5,7.2,132.6,4C151,0,169.6-0.8,188.4,0.7C208.4,2.3,227,7.9,245,16
		c7.3,3.3,14.3,7.2,20.9,11.8c-3.6,2.4-8,1.5-12,2.7c3.3,3.7,6.7-0.3,9.9-0.3c1,0,3.1-0.4,4.7-0.7c7.9,5.7,15.7,11.4,22.2,18.8
		c-4.3,1.4-8.2-0.7-12-1.7c-3.1-0.8-6.1-1.4-9.3-1.2c-4.4-0.1-8.3,2.1-12.5,3c-2,0.4,0.3,0.6,0.1,1.1c-0.9,3.3-6.5,7.9-9.4,7.7
		c-1.6-4.5-5.7-6.1-9.4-8.2c-5.6-3.2-11.7-5.4-17.5-8.1c-3.6-1.7-7.6,0.3-11-1.9c0.7-2.1,2.3-4,1.2-6.5c-0.7-1.8,1-2.6,2.2-3.4
		c2.1-1.4,4.6-1.7,6.9-2.3c-2.1,0.7-4.2,0.9-6.3,0.3c-10.8-2.8-21.8-1.8-32.7-0.7c-5.8,0.6-11.4,1-17.3-0.3
		c-8.2-1.8-16.6-0.2-24.8,0.8c-4.4,0.6-8.9,0.9-13,2.2c-1,2,5.1,3.6-0.1,5.2c-0.9,0.2-1.8,0.4-2.7,0.6c-0.8,1-4.1-1.1-2.8,2.4
		c0.3,0.7,0.2,1.3,0,2c-0.7,1.1-1.7,1.6-3,1.3c-5.2-1.8-10.2-0.2-15.4,0.1c0.5,1.7,1.9,1.7,2.3,2.6
		C104.8,44.4,104.2,45.4,102.8,45.9z"/>
	<path style="fill:#9AC846;" d="M247.9,56.9c4.1-0.2,5.7-3.9,6.8-6.4c1.5-3.4,4.1-3.9,6.6-4.9c2.4-0.9,5.1-1,7.6-1.5
		c0.8,1.3,2,2.4,3.4,2.8c4.6,1.3,7.8,3.9,10.3,8c1.9,3.1,3.9,3.1,5.6,1.1c-0.3-3,2.8-2,4-3.3c0.5-0.4,1.1-0.7,1.7-0.8
		c0.3,0,0.6,0.1,0.9,0.3c4.3,7.2,10.5,12.8,15.2,19.8c4.1,6,8.5,11.9,11.2,18.7c-1.7,3-5.8,3.4-6.9,7c-0.4,1.9,0.2,3.6,1.3,5.1
		c1.6,2.3,3.2,4.5,3.8,7.4c0.5,2.5,2.3,3.5,4.8,2c1.5-0.4,2.9-0.9,4.5-0.9c0.8,0.1,1.9,0.3,2.1,1c2.5,7.1,6,14,5.9,21.9
		c-3,3.3-5.9,2.3-8.7-0.1c-5.8-11.9-14.4-21.7-23.3-31.3c-1.8-1.8-4.3-2.8-5.5-5.2c-0.6-1.6-0.9-3.3-2.2-4.4c-1.6-1.1-3.4,0.3-5-0.6
		c-8.9-5.7-18.5-9.7-29-11.5c-2.3-0.4-4.6-0.3-6.9-0.1c-3.7,0.3-7.4,0.2-9.8-3.3c-0.7-1.9-0.8-3.9-0.2-5.9c0.8-2.8,2.5-4,5.2-2.6
		c-0.3-0.8-1.2-1.3-2.4-0.8c-3.2,1.1-6.3,1.5-7.7-2.5c-1.3-3.8,0.6-7.2,5-8.9C246.7,56.6,247.3,56.5,247.9,56.9z"/>
	<path style="fill:#9BC94A;" d="M336,134.2c-0.8-7.4-4.3-14-5.8-21.2c-0.1-0.5-1.4-0.7-2.1-1c-1.5-0.9-2.4-2.5-2.7-4
		c-0.7-3.5-2.4-6-5.2-8.2c-1.8-1.4-2.3-3.6-0.1-5.5c1-0.9,1.6-2,2.4-3.1c0.2-0.1,0.4-0.3,0.6-0.4c6,9.4,9.4,19.8,12.8,30.3
		c1.8,5.5,3.6,10.9,4,16.7C337,138.3,336.6,136.1,336,134.2z"/>
	<path style="fill:#A4D653;" d="M293.9,51.9c-0.4,0.4-0.8,0.7-1.1,1.1c-1.9,1.7-4-0.1-5.8,0.6c0.3,0.8,1.2,1.5,2,2.3
		c0.1,0.9,2,1.1,1,2.3c-0.7,0.9-1.9,1.6-3.1,1.1c-2.2-0.8-4.7-1.6-5.6-3.9c-1.7-4.4-5.2-6.2-9.4-7.3c-1.9-0.5-4.2-1-3-3.9
		c7.8-1.3,14.5,3.2,21.9,4.1C292,49.4,294.2,49.6,293.9,51.9z"/>
	<path style="fill:#B3DC6D;" d="M321,91c-4.6-7.3-8.7-14.8-14.2-21.4c-3.1-3.7-5.9-7.6-9-11.2c-1.5-1.8-2.9-3.6-2.9-6.1
		c7.4,6.5,13.4,14.3,18.8,22.5c3.4,5.2,7.2,10.2,9.3,16.1c-0.1,0.2-0.1,0.4-0.2,0.5C322.1,91.6,321.5,91.5,321,91z"/>
	<path style="fill:#1A5998;" d="M336,134.2c1.3,1.1,1.9,3,3.8,3.6c0.5,1.1,1.3,2.1,1,3.4c-2.3,1.2-3.8-0.1-5.2-1.7
		c-0.3-0.8-0.5-1.5,0-2.3c-3.2,4.2-3.6,4.4-8.2,3.9c-2-2.6-3.7-5.5-6.1-7.7c-1.3-1.2-2.3-2.9-1.8-4.9c2.3-2.5,4.3-1.5,6.2,0.6
		c1,1.1,1.1,2.8,2.2,3.9C330.3,135.2,333,135.8,336,134.2z"/>
	<path style="fill:#95CB5A;" d="M268.6,29.5c-1.3,0.2-2.6,0.5-4,0.7c0.7,0.8,1.4,1.5,2.2,2.4c-0.8,0.1-1.3,0.4-1.7,0.2
		c-2.3-1.1-3.9-1.6-6.6,0.5c-2.8,2.1-5.2-2.2-8.2-2.8c0-0.4,0-0.8,0-1.2c5.2-0.5,10.4-1,15.6-1.5C266.8,28.4,267.7,28.9,268.6,29.5z
		"/>
	<path style="fill:#ABD267;" d="M336,138.7c1.2,1.6,2.8,2.5,4.8,2.5c0.3,2.6,0.7,5.1,1,7.7c-0.3-0.1-0.7-0.2-1-0.3
		C336.9,146.7,334.9,142.7,336,138.7z"/>
	<path style="fill:#205D99;" d="M22.1,88.9c-1,2.6-1.7,5.4-4.1,7.1C18.8,93.3,19.3,90.4,22.1,88.9z"/>
	<path style="fill:#1969A0;" d="M268,268.2c-17.3,12.2-33.9,25.4-54.7,31.6c-23.2,6.9-46.5,8.7-70.2,3.1c-7.2-1.7-14.6-3-21.1-7
		c-5.7-0.7-6.3-1.7-4.7-6.7c0.8-2.4,2.2-4.7,0.4-7.3c3.1-2.1,4.9-5.7,8.8-6.9c2-0.6,1.7-2.5,0.9-4.2c-1.3-2.5-0.2-3.8,2.3-4
		c3.1-0.3,4.4-2.5,5.5-5c1-2.4,2.1-4.8,5.3-4.8c2.1,3.1,5.1,4.6,8.7,5.3c38.6,7.5,71.1-2.7,96.4-33.5c0.3-0.4,0.6-0.8,0.9-1.2
		c1.3-1.5,2.4-3.7,4.7-3.1c2.4,0.7,2,3.2,2.1,5.1c0.1,1.9,0.4,3.6,1.2,5.3c2,4.1,3.4,8.3,4.4,12.7c0.7,1.3,1.2,2.6,1.9,3.9
		C264.4,256.6,265,262.9,268,268.2z"/>
	<path style="fill:#17669E;" d="M64.1,166.9c2.9,1.3,2.7,5,5.5,6.7c1.5,0.9,2.7,1.4,4.3,1.6c2.4,0.3,4.4-4.1,6.9-0.5
		c2.5,3.5,3.2,7.3,1.7,11.3c-0.5,1.4-1.6,2.5-2.5,3.7c-4.2,5.7-4.5,13.4-0.7,19.3c1.4,2.2,2.6,4.6,3.8,7c2.6,5.4,5.8,10,11.4,12.8
		c3.2,1.6,4.7,4.4,5,8.1c0.4,4.8,0.9,9.6,0.9,14.4c0,4-0.1,8,1.4,11.8c0.8,1.9,0.8,4,0.2,5.9c-1.6,4.8-0.7,10.5,1.7,13.4
		c3.5,4.3,0.1,9,3.1,12.8c0.7,0.9-0.1,2.6-1.2,3.5c-2-0.7-3-3.3-2.8-4.2c0.6-3.5-2-4.1-3.9-5.2c-26.8-16.1-45.3-39-56.7-67.9
		c-5.4-13.8-8.2-28.1-9.3-43c-0.6-8.1,0.1-15.8,1.3-23.6c2.3-1.6,3.6,0.6,5.2,1.3c2.2,1,4.2,2.5,6.7,2.8c6.1-3.3,8.7,3.3,13.1,4.7
		C60.7,164.8,62.8,165.2,64.1,166.9z"/>
	<path style="fill:#9DD459;" d="M105.4,298.8c-0.5-1.9,1.3-4.1-1.3-5.8c-0.8-0.5-0.6-2.8-0.4-4.2c0.2-1.9,0.3-1.7-0.7-2.7
		c-0.5-0.5-0.9-1.5-1-2.2c-0.6-5.3-1.9-10.3-1.7-15.8c0.3-7.6-2.1-15.2-1.8-23c0-1.1-0.2-2.2-0.2-3.4c0-5.6-0.6-10.7-7.2-13.1
		c-6.2-2.3-7.5-8.8-10.4-13.9c-1.5-2.6-2.6-5.4-4.7-7.5c-0.8-0.8-1.3-1.6-1.2-2.6c0.9-5.8-0.3-12,4.6-16.9c3.4-3.3,3.1-9.8,0.2-13
		c-1.4-1.5-2-0.7-2.8,0.9c-1.1,2.3-2.3,1.9-3.1-0.4c0.4-0.5,0.9-0.9,1.3-1.4c0.6-2,2.2-3.2,4.1-2.7c3.2,1,5.1-0.3,7.3-2.4
		c3.9-3.9,8.7-3.6,13.3-1.3c2.3,1.1,4.5,2,7.1,1.4c2.2-0.4,4.9-2.2,5.3,2.1c-0.3,2.7,2,3.5,3.4,5c1.4,1.5,4.3,2.3,2.7,5.4
		c-2,0.7-3.5-0.5-5.2-1.3c-3-1.4-3.9-0.4-3.6,2.7c1,8.8,2.6,17.4,5.3,25.8c3.8,11.7,8.9,22.9,15.7,33.3c1.9,2.9,3.7,5.6,7.9,4.2
		c1.1-0.4,2.3,0.2,3,1.3c0.9,3.4,1.5,6.8-1.7,9.4c-1.3,2.2-3.5,3.7-4.1,6.5c-0.9,4.2-3.8,5.9-8.2,4.6c2.6,6.4,2.6,6.4-3.9,9.6
		c-0.7,0.4-1.7,0.5-1.7,1.6c0.2,3.5-2.3,2.9-4.3,2.8c-3.3,7.3-2.8,14.9-2,22.5c0.2,1.4,0.9,2.8,0.2,4.3
		C109.9,308,108.3,302.7,105.4,298.8z"/>
	<path style="fill:#99C23D;" d="M336,138.7c0.1,4,3,6.7,4.8,9.9c-1.6,4.4-5.5,6-9.1,8.5c-4.9,3.3-10.1,5.7-15.6,7.9
		c-1.2,0.5-2.2,0.6-3.2-0.1c-0.2-0.2-0.3-0.3-0.5-0.5c-3.9-10.1-9.9-19.1-15.2-28.5c-0.7-1.2-1.7-2-3.1-2.1
		c-1.5-0.9-1.7,1.8-3.1,1.2c-3.1-2.6-3.9-5.9-2.8-9.7c1.8-2.2,5.8-1.8,6.4-5.6c0.3-2.3,0.6-4-2.5-4c-0.8,0-1.7-0.1-2.4-0.4
		c-2.9-1.1-6.2,1.3-9.1-1.2c-2.3-2-2.2-5.4-3.8-7.7c-1.1,0.4-1.3,1.1-1.1,1.7c1.1,2.9-0.5,4.8-2.7,5.5c-2.6,0.9-4.9-1.3-5.5-3.3
		c-1.6-6.1-5.4-10-10.3-12.1c0.8,1.3,2.5,2.8,4.5,3.8c3.1,1.6,5.1,3.2,1.2,6.2c-0.7,0.6-1.2,1.5-2.3,1.8c-0.5,0-0.9-0.1-1.3-0.5
		c-2.3-5-7.6-6.8-11.3-10.3c-1.7-1.6-6.2,0.3-8.6,2c-2.3,1.6-4.9,3.6-6.1,6.4c-1.2,3.1-3.1,5.3-6.5,6.3c-2.9,0.8,1.5,1.8,0.2,2.9
		c-2.1,1.6-4.3,2.5-6.8,0.8c-0.3-0.3-0.6-0.7-0.8-1.2c-0.1-0.5-0.1-1.3-0.4-1.4c-7.2-3.7-4.4-9.9-3.9-15.6c0.3-0.7,0.7-1.2,1.3-1.7
		c2.3-1.7,4.8-0.6,7.2-0.5c1.6,0.1,3.5,0.3,4.4-1.6c0.8-1.8-0.3-3.1-1.5-4.4c-3-3.4-2.8-4.2,1.4-5.6c2.7-0.9,5.5-1.5,7.4-3.8
		c2.2-1.4,3.8-3.6,6-4.9c1.6-0.9,3.5-1.8,5.5-0.4c1.7,2.9,5,3.1,7.5,2.8c14.8-1.5,27,4.6,38.8,12.3c1.6,2,3.1-0.9,4.7-0.2
		c1,1.7,2.6,3.1,1.9,5.4c-4.2-0.4-8.5,1.4-12.5-1.9c-2.8-2.3-2.9,2.5-4.9,3.1c-1.1,0.9-2.6,1.7-1.7,3.6c0.7,1.4,1.9,0.8,3,0.7
		c5.1-1.7,10.2-2.9,15.5-0.4c1.8,0.9,3.9-0.4,5.9-0.3c3.3,0.5,4.2,3.7,5.9,5.7c5.3,6.3,10.2,13,15.1,19.7c1.2,1.6,2.1,3.4,1.9,5.6
		c-2.1,0.1-2-2-2.9-3c-1.5-1.7-3-3.2-5.2-0.9c0.4,5.6,4.3,8.8,8.2,11.9c2.5-0.5,4.7-1.2,6.5-3.2C336.3,135.7,335.8,138,336,138.7z"
		/>
	<path style="fill:#99BF39;" d="M288.9,124.9c-0.3,3.7,0.2,7.2,3,10c5,6.1,7.4,13.6,10.7,20.6c1.4,3,3.4,5.2,5.6,7.5
		c1.5,1.6,2.8,3.3,3.6,5.3c0.7,2.4,2.6,3.1,4.7,3.6c2,0.8,2.8,2.4,2.6,4.3c-0.4,3.9-0.1,7.8-1.2,11.6c-5.7,4.7-9.7,10.6-13.1,17.1
		c-0.8,2.8,0,5.5,0.7,8.1c1.3,4.3,1.6,8.7,1.5,13.1c-1.9,4.6-7.1,5.4-10,8.9c-2.9,1.2-4.2,4.3-6.6,6c-8.5,6-17.9,10.2-28.4,11.5
		c-0.9,0.1-1.7-0.1-2.4-0.6c-1.4-0.6-0.5-2.4-1.6-3.2c-0.8-5.6-3.1-10.6-5-15.8c-1.7-4.5-1.5-9.8,1.9-14.2c0.4-0.4,0.8-0.7,1.2-1
		c1.8-0.9,3.6-1.8,5.4-2.5c9.2-3.4,15.9-9.8,21.9-17.4c15.2-19.2,12.3-45.1-0.5-61c-2.8-3.5-6.4-5.8-9.9-8.3
		c-2.1-1.5-4.7-2.7-4.8-5.9c0.6-1.5,1.7-1.7,3.1-1.4c3.8,2.3,7.4,5.3,12.3,3.4C285.6,124.1,287.3,123.4,288.9,124.9z"/>
	<path style="fill:#99C545;" d="M259.7,252c10-1.6,19.3-5,28-10.3c2.1-1.3,3.1-3.4,4.8-4.7c1.2-0.9,1.8-4.3,4.5-1.8
		c0.1,2,0.4,3.9,0.4,5.9c0,2.6,0.4,5.3-3.1,6.3c-1.4,0.4-2.1,1.7-2.4,3.4c-0.9,6.2-8.9,15.1-14.8,16c-3.1,0.5-6.1,0.9-9.2,1.4
		c-1.6-0.2-3.1-0.7-3.2-2.5C264.5,260.6,261.7,256.5,259.7,252z"/>
	<path style="fill:#9AC647;" d="M324.6,218.8c2.7,4.7,1,8.7-0.1,12.5c-1.2,3.9-3.1,7.7-4,11.7c-0.8,3.2-2.1,5.8-5.4,4.8
		c-3.6-1-3.2-5.1-2.5-7.5c0.8-2.8,2-5.4,1.4-8.5c-0.3-1.5,0.5-3.2,1.9-3.8C319.8,226.2,322.1,223,324.6,218.8z"/>
	<path style="fill:#A8E36E;" d="M115.9,308.8c-3.7-8.3-1.7-16.8-0.8-25.3c0.2-1.6,1.5-1.4,2.7-1.6c3.8,3.1,1.9,6.2-0.1,9.2
		c-1.1,1.6-0.5,2.3,1,2.9c1.2,0.5,2.3,1.3,3.4,1.9c-5,6.6-3.3,10,6.3,14.7C123.8,313.5,119.7,312.9,115.9,308.8z"/>
	<path style="fill:#AFD056;" d="M310.9,168.9c-0.5-0.9-0.7-2.1-1.4-2.6c-7.9-6.1-10-15.6-14.2-23.8c-1.3-2.4-3.7-4.5-3.4-7.6
		c0-1.4-0.3-3.1,2.1-1.9c3.6,3.4,5.1,8.2,7,12.4c2.6,5.9,4.9,11.8,10,16.2c1,0.9,1.1,2.4,2,3.4c0,0-0.1-0.1-0.1-0.1
		c-0.4,2.1,0.9,3.5,2.1,4.9C312.8,173.4,312.2,169.8,310.9,168.9z"/>
	<path style="fill:#99C23D;" d="M317.9,187.9c-0.9-3-1.1-6-0.3-9.2c0.5-2,2-5.7-2.7-5.8c-0.6-1.8,1.4-1.9,2-3
		c2.4-1.7,5.4-0.9,7.9-1.8c0.5,2.7-0.9,5.1-1.6,7.5c-0.7,2.4-1.6,4.7-0.6,7.1C321.6,185.1,319.8,186.5,317.9,187.9z"/>
	<path style="fill:#2968A0;" d="M45.9,159.1c-3.2,1.3-5-1.6-7.5-2.5c-1.5-0.6-2.7-1.9-4.5-1.6c-1.9-2.7-5-4.6-3.4-9
		c0.5-1.2-1.3-3.7-2.5-5.1c-1.3-1.5-1.8,0-2.1,1.2c-3.1-4.5-2.5-10.3-5.7-14.8c-0.6-0.8-0.2-2,1.1-2.3c1-0.2,1.5,0.4,1.6,1.3
		c0.6,5.9,4.5,10.1,7.2,15c0.6,1.1,2,2,1.8,3.4c-1.5,7.9,4.8,9.4,9.8,11.9C43.1,157.4,44.6,158.2,45.9,159.1z"/>
	<path style="fill:#9DC63E;" d="M322.6,182.9c-2.4-1.7-2.1-4-1.1-6.1c1.4-2.8,1.3-6.1,3.3-8.6c2.9-2.2,3.4-0.3,3.1,2
		C327.4,174.9,324.7,178.8,322.6,182.9z"/>
	<path style="fill:#AFD35B;" d="M307.1,226.2c-1.2-6.2-2.5-12.3-3.7-18.5c-0.3-1.4,0.4-2.2,1.5-2.8C306,212,309.9,218.8,307.1,226.2
		z"/>
	<path style="fill:#9DC63E;" d="M316.9,170c0.1,1.5-1.4,1.9-2,3c-1.7-1-4-1.4-4-4c1.4,0.1,2.1,3.2,4.1,0.9
		C315.6,169.9,316.3,169.9,316.9,170z"/>
	<path style="fill:#1D73A3;" d="M216.9,98.8c-0.4,0.4-0.8,0.8-1.2,1.2c-0.8,2.5-0.3,5.2-1.2,7.8c-0.7,2-0.5,5.1,2.9,5.8
		c1.9,0.4,2,2,2.4,3.4l0.4,0c-0.7,3.7-3.2,5-6.6,5.2c-5.8-9.5-15.8-12.6-25.3-15.2c-34.3-9.4-68.5,11.6-79,41.2
		c-1.4,4.1-2.4,8.3-3.2,12.5c-0.4,2-0.6,3.9,1,5.6c1.1,1.2,1.7,2.5,0,3.8c-2.6,1-4.9,0.2-7-1.1c-1.6-1-2.9-2.9-4.8-0.3
		c-0.3,0.4-1.4,0.5-1.5-0.2c-0.1-0.6,0.6-1.4,1.4-3.1c-4,2.8-8.2,3-10.1,7.1c-0.6,1.3-1.8,2.1-3.2,0.9c-2.4-2.1-4.5-1.2-6.6,0.6
		c-0.1-0.2-0.2-0.5-0.2-0.8c-2.6-2.3-3.6-4.9-2.3-8.4c0.7-1.7,0.9-3.9,0-5.3c-3.1-4.9-1.6-9.5,0.5-14.1c3.2-2.2,6.9-1.8,10.6,1.1
		c3,2.3,3,2.3,6.5,2.5c-5.1-0.8-8.7-5.6-14.1-5.5c-1.6-2.9-1.3-5.7,0.6-8.4c1.6-0.7,2.1,1.2,3.3,1.5c0.3-0.2,0.5-0.5,0.4-0.9
		c-0.9-8.7,2-15.2,10.5-18.7c1.3-0.5,2.7-1.7,2.9-3.2c0.5-3.5,3-5.5,5.4-7.5c3.6-3.1,8.3-4.7,11.4-8.6c1-1.2,3-1.8,4.6-1.4
		c4.4,1,8.1-0.9,11.9-2.5c-0.6-0.2,0.4-0.2,0.2-0.2c-4.5-0.6-5.3-2.8-3.2-6.6c3.6-4,5.8-4.2,9.9-0.9c0.1,2,0.7,3,2.9,3.7
		c3.3,1,4.7-1,6.3-2.9c5.7-1.6,11.2-3.6,17.2-4.4c17.7-2.3,34.3,1,50.3,8.3C214,92.1,218.3,93.6,216.9,98.8z"/>
	<path style="fill:#9ED75C;" d="M143.1,87c-0.7,1.5,0.9,4.4-1.5,4.5c-3,0-6-1.3-9-2.1c0.4-0.8,0.9-1.7,1.3-2.5
		c0.4-0.9,0.6-1.9,1.6-2.3c-4.5-0.2-9.2-0.6-13,1c1,0,2.9-0.5,2.4,2.3c-1.2,4.1-0.8,4.6,3.5,4.1c0.5-0.1,1-1.2,1.5-0.1
		c0.2,0.5-0.1,1.6-0.4,1.7c-4.3,1.6-8,5.2-13.2,3.5c-2.8-0.9-6.2,0.7-6.7,2.8c-0.8,3-2.9,3-4.7,4.1c-4.1,2.5-8.6,4.7-9.1,10.5
		c-0.2,2.1-2.9,3-4.7,3.9c-6.6,3.1-10.7,7.4-8.9,15.4c0.4,1.6,0.2,3.8-1.6,4.2c-1.9,0.4-1.9-2.4-3.4-3.2c-0.6-7.1-6.4-6-11-6.9
		c-3-2-1.1-4.7-0.5-6.8c1.4-5.4,3.6-10.6,5.2-16c0.8-2.6,1.4-3.3,3.9-1.3c1.9,1.5,4.7,2.6,4.4-2c2-1.5,2.3-4.2,4-6
		c1.5-0.9,2.8-1.9,3-3.9c0.4-1.6,0.5-3-1.9-2.6c-1.7,0.3-3.4,1.1-5.1,0.4c-2-6.3,3.4-9.5,6.1-13.6c1.6-2.5,5.3-1.4,8.3-0.2
		c2.4,1,2.6,3.2,3.7,4.9c0.9,1.3,1.9,4.5,4,0.8c2.4-3.9,4.2-7.9,8.5-10.6c2.8-1.8,2.9-6.6,5.5-9.5c4.3-4.9,10.9-4.6,13.4,1.4
		c1.1,2.6,1.8,2.5,3.9,1.3c3.5-2.1,5.2-1.6,5.5,2.5c0.3,4.5,2.6,7.3,5.5,10C144.5,80.3,140.5,83.6,143.1,87z"/>
	<path style="fill:#17629D;" d="M142.8,77.2c-6.7-2.3-5.2-9.1-7.3-14c-1.2,1-2.2,1.9-3.2,2.7c-1.1,0.9-2.2,2.1-3.8,1.2
		c-1.4-0.8-1-1.9-0.9-3.4c0.2-2-1.7-4.3-3.5-3.7c-2.4,0.7-5.7-3-7.3,1.3c-1.2,3.2-5.7,4.9-4.2,9.3c0,0.1-0.1,0.4-0.2,0.4
		c-5.4,1.9-7.3,7.6-11.5,10.8c-0.2-0.3-0.5-0.6-0.5-0.8c2.6-8.4-5.1-8.5-9.3-10.8c-3.1-1.7-3.2-3.4-2.3-6.1
		c4.3-5.7,10.9-7.2,17.1-9.5c1.1-0.4,1.7,0.9,2.5,1.2c1.7,0.6,4,2.2,4.4-1.8c0.3-2.8,10.5-9.1,13.2-9.1c1.4,0,2.6,0.3,2.4,1.8
		c-0.2,1.8,0.1,2.5,2.1,2.7c1.6,0.2,1.6,1.3,0.6,2.5c-1.5,1.8-4.2,2.9-7.3,3.1c1.4-0.2,3.1,0.5,4.6,2c1.8,1.8,4.1,2.3,6.5,1.9
		c1.7-0.3,3.4-1,2.8-3.3c-1-3.5,0-4.4,3.3-3c1.1,0.5,2.3,0.4,3.5-0.8c-2.2-2-3.7-4.8-5.6-6.9c-2.6-2.8-6.1-4.9-10.6-4.7
		c-2.8,0.1-6,1.1-8.6-1.3c0-0.6,0-1.1,0-1.7c1.8-2.1,4.3-1.4,6.5-1.5c2.6-0.2,5.3,0.5,7.7-1.2c5.8-3.2,11.9-5.8,18.5-7
		c1-0.2,2-0.4,3-0.3c1.2,0.1,2.5,0.2,2.7,1.7c0.2,1.5-1,1.9-2.1,2.2c-1.7,0.5-3.7,0.1-5.5,1.6c1.4,1.4,3,0.9,4.5,1
		c6.7,0.3,7.3,0.8,7.9,7.3c0.1,0.7,0.2,1.3,0.3,2c-0.1,2-2.3,3.2-1.8,5.4c-0.4,1.6-2,2.4-2.8,3.8c-0.9,2.7-0.4,5.2,0.4,7.8
		c1.2,3.5-0.3,5.4-3.7,6.1c-2.9,0.7-5.8,1.2-8.8,1.8c-3.6,0.7-5.5,2.2-3.5,6.2C143.7,75,143.9,76.2,142.8,77.2z"/>
	<path style="fill:#18669E;" d="M66,128c3.4-2.1,6.8-0.3,9.9,0.5c3.2,0.8,0.1,4.3,1.1,6.4c-0.4,2.6-0.7,5.2-1.1,7.8
		c-0.2,1.2-2.6,0.5-2,2.3c-1.2,5.1-2.2,9.8-0.3,15.3c1.3,3.8-1.8,8.6,1.3,12.7c-3.9-0.8-4.4-3.4-3.7-6.8c1.7-7.7,1.4-8-6.5-7.7
		c-2.3,0.1-1.9-1.2-1.4-2.5c0.8-2.2,1.8-4.3,2.6-6.4c0.4-1.1,1.9-2.4,0.3-3.5c-1.1-0.7-2.6-0.5-3.8,0.2c-0.8,0.5-1.8,1.1-2.2,2
		c-2,4.1-5.5,6.1-9.2,3.8c-3.4-2.1-4.7-6.4-2.9-10.4c1.5-3.4,0.8-7.7,4.4-10.2c2.9-2,5.7-4,9.5-2.2C63.9,130.3,65.2,129.9,66,128z"
		/>
	<path style="fill:#9FDA5F;" d="M119.9,38.8c3.8,0,7.6-0.1,11.4,0.2c4.1,0.4,9.8,3.6,9.9,5.5c0.2,4.9,4.3,4.5,6.3,7.1
		c-2.8,1.3-5.2,5.7-8.7,0.8c-2.3,2,2.8,3.4,0,5.8c-2.8,2.4-8.1,3.4-10.3,0.3c-2.1-2.9-4.6-2.6-8.7-2.7c4.3-2.8,9.4-1.1,11.2-5.8
		c-1.2-0.8-2.9,0.3-4.7,0.1c0.6-1.7,2.7-2.5,1.6-4.4c-1.8,1.5-4.5-1.1-6.3,1.6c-1.9,2.9-4.4,5.4-8.1,5.9c0.1,1.9,2.8,2.2,2.1,4.5
		c-2.3,0-4.7-0.9-7,0.2c-0.4,0.2-1.1,0.1-1.5-0.1c-2.1-1.3-3-1.5-5.4-0.5c-4.4,1.9-8.7,3.9-12.6,6.8c-1.4-4.6,0.2-7.4,6-10.1
		c2.1-1,7.3-6.3,7.9-8.1c0.4-0.9,1.4-1.7,1-2.9c2.6-0.2,1.9,2.2,2.5,3.5c0.9,1.9,1.5,3.9,4.3,2.8c1.9-1.4,4.2-2.3,3-5.6
		c-0.7-1.7,1-2.9,2.6-3.6c0.2,0,0.5-0.1,0.7-0.1C118.1,40.1,119,39.5,119.9,38.8z"/>
	<path style="fill:#2B739A;" d="M78.9,89.8c1.8-0.6,3.6-1.3,5.5-1.9c1.5-0.5,3.2-0.2,3.9,1.2c1,2.2-1.5,1.9-2.4,2.9
		c-2.3,0-4.4-1.7-6.9-0.6C78.1,91.8,78.4,90.5,78.9,89.8z"/>
	<path style="fill:#438288;" d="M64.5,52.3c-1.8,0.7-3.4,1.3-5,1.8c-0.6,0.2-1.8,1.6-2.1-0.3c-0.2-1.1,0.1-2,1.5-1.8
		C60.6,52.2,62.2,50,64.5,52.3z"/>
	<path style="fill:#286A91;" d="M75.3,47.3c2.4,0.3,4.8,0.6,7.6,1C80.3,49.5,78.6,49.4,75.3,47.3z"/>
	<path style="fill:#2E6E8F;" d="M57.2,62.6c3.1-1,5-3.4,8.4-2.3C63,61.9,60.9,63.5,57.2,62.6z"/>
	<path style="fill:#1E699C;" d="M83,95.9c-1.1,2.2-0.3,5.6-4,6C79.1,99.1,80.5,97.1,83,95.9z"/>
	<path style="fill:#4788B0;" d="M64.1,166.9c-2.3-0.1-3.6-1.7-5.1-3.1C61,164.2,64.2,162.9,64.1,166.9z"/>
	<path style="fill:#9ED458;" d="M158,50.9c1-1,2.1-2,3.1-3c0.3-1.5,2.1-2.3,1.7-4.1c-1-1-2.1-1.9-1.5-3.7c1.4-4.2-0.9-5.4-4.5-5.4
		c-2.3,0-4.7,0.1-6.9-0.2c-1.1-0.1-2.3-1-2.2-2.3c0.1-1.2,1.4-1.1,2.3-1.5c2.5-1.1,5.2-0.6,7.7-1.8c-3.5-0.8-6.8-0.4-10.1,1
		c-4.2,1.7-8.5,3.3-12.7,4.9c-0.5,0.3-1,0.4-1.5,0.4c-2.7-0.8-6.4,1.8-8.2-2.3c0.5,0,1.1,0.1,1.5-0.2c1.4-0.8,0.2-0.9-0.3-0.9
		c-1.9,0-3.7-0.9-3.7-2.6c0.1-1.8,2.4-2.1,4-2.3c11-1.3,22-4.5,33-2.7c12.1,2,23.9,0,35.7-0.6c9.5-0.5,18.5,2.5,28.9,2.3
		c-2.6,0.9-4.3,1.8-6.1,2.1c-4.6,0.8-6.1,3.4-5.2,7.8c0.2,0.8-0.2,1-2.9,2.9c-1.7,5.9-5.5,9.4-11.7,10c-7.1,0.8-12.9,5.1-19.7,6.9
		c-2.7,0.7-4.3,3.5-6.2,5.6c-1.3,1.5-2.4,3.2-4.3,4.1C159.8,65.5,156.3,60.3,158,50.9z"/>
	<path style="fill:#17639D;" d="M167.8,64.9c2.7-3.1,5.3-6.2,8-9.3c0.5-0.6,1.2-1.5,1.9-1.5c7.7-0.6,13.7-6.2,21.4-6.8
		c3.7-0.3,7.7-1.3,8-6.5c0-0.7,1.8-1.2,2.8-1.8c10.5-2.4,18.5,4.3,27.3,7.9c2.7,1.1,5.1,3.1,7.7,4.4c2.4,1.2,3.4,3,3,5.6
		c-2.3,1.9-6.4,2.2-6.1,6.7c0.3,4.1,2.2,6,5.7,4c4.7-2.8,4,1.9,5.6,3.3c0.8,0.7,0,1.1-0.6,1.3c-0.4,0.2-1,0.4-1.3,0.2
		c-1.1-0.8-0.3-4.1-3.3-2.3c-2.3,1.4-0.8,3.6-1,5.4c0,0.5-0.1,1-0.1,1.5c-5.1-0.6-6.9,4.7-11,5.9c-0.8-0.2-1.2-0.6-1.5-1.3
		c-0.9-4.5-5.1-7.1-6.1-11.6c-0.3-1.5-1.8-1.1-2.6,0.2c-0.8,1.4-0.6,3.3-2,4.4c-2.3,1-4.4,2.9-7.2,1.9c-13.9-6.8-28.4-10.8-44.1-9.8
		C170.6,66.9,168.8,67.1,167.8,64.9z"/>
	<path style="fill:#9FE06B;" d="M111,49.8c-2,2-3.4,1.6-5.2-1c-1.3-1.8,0-4.4-2-5.9c-2,0.2-3.5-0.4-4.3-2.2
		c4.1-3.5,9.3-1.4,13.9-2.7c0.9-0.2,4.1-1.8,3.4,1.9c0,0,0.1-0.1,0.1-0.1c-3.6,1.5-7.4,2.8-4.6,8C112.7,48.7,111.7,49.4,111,49.8z"
		/>
	<path style="fill:#9BDC6B;" d="M102.1,36.1c-7.7,1.2-14.6,3.1-21.1-1.8c2.3-0.5,4.6-0.8,6.9-1.5c2.2-0.7,4-0.8,5.5,1.3
		c0.7,1,1.9,2,3.4,0.6C98.7,33,100.1,34.5,102.1,36.1z"/>
	<path style="fill:#A0DD61;" d="M134.2,35c0.2,0,0.3-0.1,0.5-0.1c-0.9,3-3.4,2-5.4,2.1c-3.1,0.2-6.3,0.1-9.4,0.1
		c-1.1-0.4-2.9,0.4-2.9-1.7c0.1-2.1,1.8-1.3,3-1.5c1-0.1,2-0.1,2.9-0.1C126.5,36,130.6,33.4,134.2,35z"/>
	<path style="fill:#97D668;" d="M103.6,34.1c3.5,0,6.2,0,8.9,0C109.6,38,109.1,38.1,103.6,34.1z"/>
	<path style="fill:#3B7D8A;" d="M134.2,35c-2.3,0.2-4.6-0.2-6.8,0.7c-2.1,0.9-3.4-0.2-4.5-1.9c0.5-0.8,1.3-0.9,2.1-0.8
		C127.7,35.4,131.6,32.2,134.2,35z"/>
	<path style="fill:#94D46D;" d="M115.6,31.1c-2.7,1.3-4.5,1.2-6.7,0C111,28.2,112.9,29.3,115.6,31.1z"/>
	<path style="fill:#72B277;" d="M103.1,30.6c-1.5,1.7-3.4,2.2-6.1,2.3C98.8,30.5,100.9,30.5,103.1,30.6z"/>
	<path style="fill:#185D9B;" d="M305.1,102c-1.4,3.2-4.6,2.5-6.4,1.7c-4.6-2-8.7-2.3-13.1,0.1c-0.6,0.4-1.6,0.1-2.4,0.1
		c-3.1-1.4-4.2-3.3-1.2-5.9c0.5-0.6,1.2-1.2,1.4-2c1.4-4.2,3.3-3.9,5.9-0.9c0.6,0.6,1.2,2.3,2.1,1.6c3.2-2.5,5.8,0.1,8.6,0.6
		C301.1,99.4,304,99.6,305.1,102z"/>
	<path style="fill:#175D9B;" d="M270.9,64.9c-0.2,1.5-2.1,0.7-2.6,2.1c0.1,2.1,3.5-0.2,3.4,2.7c-3.1-1.4-4.5-0.2-4.9,3.1
		c-0.2,1.8-1.3,3-3.9,2.5c-3.1-0.6-6.3,1.4-10,0.3c0.5-0.7,0.9-1.8,1.3-1.8c5.8,0.5,5.1-5.9,8.5-7.9c0.2-0.1,0.2-1,0.1-1.4
		c-0.4-1.5-3.3-2.5-1.3-4.5c2.2-2.3,4.7-4.5,7.2-6.5c0.7-0.6,1.9-0.1,2.5,0.8c-0.8,2.9-6.2,2.8-4.5,7.5
		C267.5,64.1,268.8,64.8,270.9,64.9L270.9,64.9z"/>
	<path style="fill:#195898;" d="M321,91c0.6,0.1,1.2,0.2,1.8,0.3c0,1,0.2,2.6-0.2,2.8c-6.3,2.8-1.8,4.6,0.6,6.6
		c3.6,2.9,2.8,7.7,4.9,11.2c-1,1.6-2.8,0.9-4.2,1.2c-3.6,0.1-5.9-1.1-5.2-5.2c0.3-1.6-0.3-3-1.4-4.1c-2.1-2-3.2-4.6-4.3-7.2
		C315,93.9,317.4,91.6,321,91z"/>
	<path style="fill:#ADD562;" d="M313,96.7c2.9,2.1,3.6,6.1,6.9,7.9c0.6,0.3,0.7,1,0.3,1.7c-2.9,4.5,0.7,5.5,3.7,7
		c-2.7,3.5-4.7,0.2-5.1-1.3c-1-4-3.2-7.1-5.4-10.3C312.5,100.2,313,98.4,313,96.7z"/>
	<path style="fill:#1A5993;" d="M288.9,55.9c-3.2,0.9-2.7-2.6-4.8-3.9c3.3,0.4,6,0.7,8.7,1c0.3,1.5-0.4,2.1-1.9,1.9
		C290,54.8,289,54.3,288.9,55.9z"/>
	<path style="fill:#26668E;" d="M297.9,91.9c-0.9,2-2.6,2.7-4.6,2.1c-1.2-0.4-0.3-1.2-0.1-1.9C294.8,92.3,296.2,89.7,297.9,91.9z"/>
	<path style="fill:#2D6C8A;" d="M270.9,65c2.3-1.5,4.8-2,7.4-0.1C275.9,64.9,273.4,64.9,270.9,65C270.9,64.9,270.9,65,270.9,65z"/>
	<path style="fill:#ACD25B;" d="M328,140.9c-3-0.5-9.7-7.5-9.7-10.2c0-0.6,1-1.2,1.5-1.7c0.8,2,2,3.8,3.7,5
		C326,135.8,327.5,138,328,140.9z"/>
	<path style="fill:#1F74A4;" d="M256,219.1c-3.2,5.7-4.9,11.6-0.8,17.5c2.6,3.8,2.8,8,2.9,12.3c-1.3-7.2-6.5-13.2-6.2-20.9
		c0-0.9,0.3-2.3-1-2.5c-1.3-0.2-2,1-2.6,2c-5.7,8.5-13.1,15.3-21.4,21.2c-12.4,8.7-25.9,14.5-41,16.4c-13.3,1.7-26.3,1.4-39.4-1.9
		c-3.7-0.9-6-2.5-6.6-6.3c1.9-3.1,0.5-6.6,1.2-9.8c0.6-1.9,2.1-3,3.8-3.5c3.8-1.3,7.2-3.3,10.2-5.9c3.1,1.9,1.2,4.2,0.1,5.9
		c-1.9,3-0.6,3.7,2.1,4.1c24.3,3.9,46.2-1.4,65.1-17.5c8.3-7.1,14.8-15.6,19.4-25.6c1.1-2.5,1.9-5.5,5.3-6.1
		c2.6,0.3,3.8,2.4,4.9,4.4C254.9,207.8,256.3,213.2,256,219.1z"/>
	<path style="fill:#2280A8;" d="M107,170c0.1-0.3,0.4-0.8,0.3-0.9c-6.4-6.7-1.8-13.9,0.4-19.9c9.8-26.4,29.1-41.5,57.2-45.4
		c16.8-2.3,31.2,3.2,45.2,11.4c3,1.8,2.6,4.7,4.1,7c1,4.1-0.1,7.5-3.7,9.8c-4.9,3.1-7,8.3-9.6,13.1c-0.6,1.1-0.5,2.2-0.1,3.4
		c1,3.3,0.8,6.5-0.4,9.8c-1.3,3.6-0.9,6.9,1.9,9.6c3.2,3.1,4.6,7.6,8.3,10.5c2.7,2.1,5.1,3.3,8.6,2.7c2.7-0.5,5.6-0.8,8.3,0.7
		c3.3,3.3,3.4,7,1.7,11c-9.6,22.9-26.5,36.3-51.3,39.5c-4,0.5-7.9,0.6-11.9,0.1c-6.5-0.9-9.1-4.6-7.5-11.1c0.4-1.6,1-3.1,1.4-4.8
		c0.6-2.1,1.9-3.9,2.7-6c0.6-2.8-0.2-4.9-3-6c-2.6-1.1-4.4-3.6-7.3-4.1c-5.3-0.3-9.4-3.7-14.2-5.5c-4.2-1.1-4.5-5.3-6.3-8.3
		c-1.1-1.8-1.7-4-4-4.7c-2-1-4.3-0.4-6.3-1.2c-3.5-3.2-7.7-5.7-10.3-9.9C110.4,167.1,108.3,170.5,107,170z"/>
	<path style="fill:#9CCC4D;" d="M163.8,210.9c-1,1.6-1.9,3.3-2.9,4.9c-2,3.8-3.2,7.6-2.9,12.2c0.2,3.4,0,7.3-3.2,9.9
		c-1.2,3.1-2.6,5.2-6.6,5.4c-2.4,0.1-4.7,2.4-7.1,3.8c-0.2,0-0.4-0.1-0.5,0c-7.3,3.5-9.6-2.2-12.5-6.8c-11.1-18.1-17.4-37.8-20-58.7
		c-0.2-1.3-0.3-2.7,0.9-3.7c1.4-1.1,2.5,0.1,3.6,0.5c2.1,0.9,4,2.4,6.4,2.7c0.2,0,0.4-0.1,0.7-0.1c2.6-0.1,5.3-0.9,7.7,0.7
		c3.1,2.3,5,5.6,6,9.2c0.7,2.6,2.1,3.4,4.5,3.3c5.5,0.3,9.4,5.5,15.1,5.1c1.9,2,3.7,4.1,6.3,5.1
		C162.3,205.5,162.4,208.6,163.8,210.9z"/>
	<path style="fill:#B3DF6F;" d="M111,170.9c4,2.3,7.1,5.5,10,9c0.1,1.9-0.8,1.8-2.1,1.1c0,0,0,0,0,0c-1.4-2.1-3.1-3.9-5.3-5.2
		C111.8,174.7,110.6,173.2,111,170.9z"/>
	<path style="fill:#96B72C;" d="M226.9,182.2c-3.1-0.3-6.2-0.8-9.3,0.4c-2.3,0.9-4.1-0.3-6-1.5c-5.9-3.6-8-10.5-12.8-15.2
		c-1.2-1.1-1.4-4.5-0.3-7c1.6-3.7,2.4-7.5,0.3-11.3c-0.3-0.5-0.1-1.3,0.2-1.9c2.2-4.6,3.9-10.2,8-12.7c4.5-2.8,6.2-6.3,7.1-10.8
		c1.9-2,4.7-2.9,6.2-5.3c2.2,2.1,4.5-0.4,6.7,0c5.9-6.5,13.6-5.5,21.2-5.3c1.2,0.8,2,2,1.8,3.3c-0.9,5,1.6,6.9,6.1,7.9
		c3.2,0.7,5.2,4.8,9.2,3.2c1.6-0.7,1.5-3.2,3.6-3.3c1.5,3.2,4.7,4.5,7.4,6.4c12,8.4,17.6,20.4,18.5,34.6c0.4,6.4,1,12.9-1.7,19.2
		c-5.9,13.9-13.8,25.9-28.2,32.5c-2.7,1.2-5.4,2.3-8.2,3.5c-1.1-2.2-1.8-4.6-2-7.1c-0.4-4.4-2.1-8.5-5.2-11.5
		c-3.2-3.1-3.8-6.2-2.6-10.2c0.8-2.6,1.3-5.5-3-5.4c-0.7,0-1.4,0-2-0.3c-2.4-1.4-3.4-5.6-7.4-3.6C232,181.4,229.7,183.3,226.9,182.2
		z"/>
	<path style="fill:#1C72A3;" d="M167.8,64.9c1.5,0.9,3,0.6,4.7,0.5c15.3-1.3,29.5,2.9,43.2,9.2c0.5,0.2,0.8,1,1.2,1.6
		c2.7,5.1,3,5.1,6.4,0.1c0.6-0.8,1.1-1.6,2.2-1.9c4,1.4,4,1.4,1,7.9c3,1.3,5.9-0.6,8.8-0.2c0.2,0.3,0.4,0.6,0.6,0.9
		c-1.6,3.7-5.4,3.3-8.3,4.4c-0.9,0.3-2.1,0.2-2.3,1.3c-0.2,1,0.8,1.3,1.5,1.6c3.2,1.4,3.8,4.3,2.9,7.1c-0.9,3-3.9,1.6-6.1,1.7
		c-2.2,0.1-4.4-1.5-6.7,0c-0.5-4.1-3.8-5.8-6.9-7.2c-13.9-6.3-28.6-9.8-43.9-8.4c-7,0.6-14.7,0-20.6,5.6c-2,1.9-1.2-1.6-2.4-1.7
		c-2.7-1.3-4-2.7-1.6-5.6c0.9-1,0.9-2.8,1.3-4.2c-0.1-0.6-0.1-1.4-0.3-1.9c-2.9-6.8-2.7-7.1,4.6-8.9c0.8-0.2,1.6-0.3,2.4-0.4
		c2.7-0.6,6-0.6,8-2.2c2.4-1.9-0.9-4.7-0.6-7.2c0.2-1.9-0.8-4,1-5.6C157.7,60.3,159.5,62.9,167.8,64.9z"/>
	<path style="fill:#1A6AA0;" d="M268.9,122.7c-1.8,0.9,0.2,4.3-2.9,4.3c-5.7-0.1-9.5-4.9-14.8-5.9c-1.6-0.3-1.9-1.9-1.2-3.6
		c0.9-2.2,0.3-4.2-1.9-5.4c-7.2,0.7-14.6,0.6-21,4.8c-1.2-1.5-3.3-0.3-4.6-1.5c-0.2-1.7,1.4-1.9,2.2-2.1c4.1-0.6,6-2.7,8-6.6
		c1.6-3.1,4-8.7,10.1-7.6c1.1,0.2,2.4-0.9,3.6-1.5c0.9-0.5,2.2-1.3,2.6-0.2c1.8,4.4,6.3,5.6,9.5,8.4c1.3,1.2,1.4,2.5,1.5,4
		c-0.6,0.5-1.3,0.6-2,1c0.8-0.2,1.4-0.6,2-1.1c1.3-0.1,2.7-1.2,2.4-2.1c-1.6-4,1.9-0.7,2.5-2.2c-3.8-3.3-10-4.7-10.8-12.3
		c3.3,3.7,6.6,5.8,10,7.8c2.8,1.7,2.3,5.6,4,8c1.2,1.6,2,6.1,5.9,2.4c1.2-1.1,1.7-1.5,0.3-2.9c-2.6-2.6,0.8-3.7,1.9-4.3
		c2.2-1.1,1.8,1.4,2.4,2.6c1.2,2.5,0.4,6.4,4.6,6.8c3.2,0.3,6.6,1.2,9.6,0.4c3.8-1.1,3.8,1.5,3.8,3.3c0.2,4.8-2.7,7.4-7.5,7.4
		c-1.7-0.1-3.3-0.1-4.9,0.7c-4.6,0.5-8.5-1.2-12.1-3.7C270.8,121.8,269.7,121.6,268.9,122.7z"/>
	<path style="fill:#24689E;" d="M313,165c-6-4.8-10.4-10.5-12.5-18.3c-1.3-4.7-5.2-8.7-6.4-13.7c1.4-0.8,2.6-0.7,3.2,0.9
		c1.8,4.2,5.5,7.3,6.7,11.8c0.3,1.2,1.3,2.2,2,3.3C309.2,153.9,312,159.1,313,165z"/>
	<path style="fill:#2280A8;" d="M219.8,117c-1.2-1-1.7-2.7-3.6-3.1c-2.8-0.7-3.5-3.7-2.7-5.4c1.3-2.8,0.7-5.8,2.2-8.4
		c0.3,2.3,0.4,4.6-0.3,6.9c-0.7,2.6-0.9,4.9,3,5.5C220.4,112.7,221.8,114.7,219.8,117z"/>
	<path style="fill:#9AC846;" d="M281.8,98c-1.6,2.4-0.5,4.2,1.2,5.9c-1.8,1.1-3.1,0.8-3.7-1.3C278.6,100.3,278.9,98.4,281.8,98z"/>
	<path style="fill:#2280A8;" d="M243.7,183.9c4-0.8,6.2,0.9,5,4.8c-1.6,5.3-0.7,9.1,3,13.3c4.1,4.6,3.9,11.2,5.1,17
		c-0.3,0-0.5,0.1-0.8,0.2c-2.5-5.5-1.7-12.1-6-17c-1-1.1-1.7-2.4-3.1-3.1c-2.6-2-2.2-4.7-1.5-7.3
		C246.2,188.7,245.7,186.2,243.7,183.9z"/>
	<path style="fill:#99C23D;" d="M271.9,122c4,1.2,8.1,2.5,12.1,3.7C280.2,127.6,274,125.7,271.9,122z"/>
	<path style="fill:#1C649D;" d="M292.2,197.8c0.1-1.9-1.3-3.8,1.2-4.8c0.7-0.3,2.1-0.2,2.1,0.6C295.6,195.7,294.8,197.4,292.2,197.8
		z"/>
	<path style="fill:#528E7B;" d="M289.2,209.5c-3-2.8-3.6-5-2.9-8.7C287.3,203.9,288.1,206.1,289.2,209.5z"/>
	<path style="fill:#A0DA63;" d="M73.9,145.1c-0.8,0.2-1.5,0.4-2.4,0.6c0.6-2.5,2.5-2.7,4.4-3c6-1,9.9,3.3,14.7,6
		c-2.8,1.8-5,1.9-7.5-0.8C80.8,145.4,77.8,143.4,73.9,145.1z"/>
	<path style="fill:#97D060;" d="M90,153.7c2.7-2.8,5.1-5.2,8.9-3.1c0.8,0.4,2.1,0.3,2,1.8c-0.1,1.9-1.5,0.5-2.2,0.9
		C95.9,154.8,93.1,154.1,90,153.7z"/>
	<path style="fill:#21719F;" d="M124.8,87.9c-0.9-3.5-3.6-0.5-5.4-1.4c2.9-2.2,6.1-2.4,9.3-2.4c3.3,0,6.6,0,9.5-2.2
		c-0.9,2.3-2.3,4-4.3,5C130.1,83.9,127.7,84.1,124.8,87.9z"/>
	<path style="fill:#26719C;" d="M89.4,99.2c-0.8-5.7-0.3-6.1,5-4C91.8,95,91.5,97.6,89.4,99.2z"/>
	<path style="fill:#96CD5C;" d="M162.7,43.9c0.7,0.2,1.9,0.1,1.8,1.2c-0.2,2-2.2,2-3.4,2.9C159.6,45.8,159.7,44.2,162.7,43.9z"/>
	<path style="fill:#1F639A;" d="M111,49.8c0.2-0.8,0.9-1.7,0.7-2.2c-2.9-5.9-2-7.2,5.3-7.7c-0.6,1.8-5.9,3.2-0.5,5.7
		c0.9,0.4-0.1,1.7-0.7,1.9C114,48,113,50,111,49.8z"/>
	<path style="fill:#9BC749;" d="M235.3,82c-2.9,2.8-6.3,1.9-9.9,1.8c0.8-2.2,0-4.3,1.9-6.4c1.8-2-0.9-2.3-2.5-2.4
		c-0.9,0.2-1.2-0.1-1-1c0.1-1.9-0.8-4,1.1-5.6c0.9-0.8,2.7-1.9,2.8-1.2c0.5,1.8,3.4,1.7,2.9,2.9c-1.7,3.9,2.1,5,3.5,7.3
		C235.1,78.9,236.3,80,235.3,82z"/>
	<path style="fill:#98C950;" d="M215.5,54.5c-3.7,1.6-6.9,4.2-11.5,3.2c-2.8-0.6-2-3.2-3.6-4.2c1.2-1.6,2.6-1,4.3-0.7
		c1.9,0.4,4.1,0.3,5.8-0.3C213,51.5,214.2,52.3,215.5,54.5z"/>
	<path style="fill:#99C545;" d="M223.9,74c0.3,0.3,0.6,0.6,1,1c-1.3,2.6-1.1,6.1-5.6,6.4c-3,0.3-4.3,0.9-2-2.5
		c0.4-0.6-0.2-1.8-0.3-2.8C219.5,76.1,221,72.7,223.9,74z"/>
	<path style="fill:#1F78A5;" d="M243.7,183.9c3.2,0.6,4.3,2.1,3.4,5.6c-0.8,3.1-1.9,6.3-0.2,9.5c-4.4,3.9-5.4,9.7-8.6,14.4
		c-15.7,23.5-37.2,36-65.6,36.6c-6.3,0.1-12.5-0.3-18.7-1.8c-2.9-0.7-3.5-1.4-1.3-3.6c1.9-1.8,3.7-3.8,2-6.7c1.4-3.9,2.1-7.9,2-12
		c-0.1-4,1.1-7.3,4.1-10c0.2,2.4-1.1,4.5-1.7,6.7c-1,4,1.2,8,4.8,8.4c26.4,2.9,51-10.6,62.5-35.2c2-4.4,3.9-8.9,0.4-13.5
		c2.6-0.7,4.9-2.5,7.8-2.3c4.3-2.2,4.5,3.2,7.2,4C242.6,183.9,243.1,183.9,243.7,183.9z"/>
	<path style="fill:#B0DA6B;" d="M137.8,194c-2.6,1.6-4.6,0.8-5.2-2c-0.9-4-3.3-7-5.7-10.1c-0.2-0.9,0-1.4,1-1c5,0.9,4.8,6,6.6,9.1
		C135.5,191.7,136.7,192.7,137.8,194z"/>
	<path style="fill:#B1D760;" d="M163.8,210.9c-2.2-5.3-9.1-6.2-10.8-11.8c3.6,1,5.9,4.2,9.5,5.5
		C164.4,205.4,164.1,208.6,163.8,210.9z"/>
	<path style="fill:#9DD459;" d="M127.9,180.9c-0.3,0.3-0.7,0.7-1,1c-2.5-1.9-5.5,0.9-8-1c0.9,0,1.6-0.3,2.1-1.1
		C123.3,180.4,125.9,179,127.9,180.9z"/>
	<path style="fill:#A8C947;" d="M248,112.1c3.4-0.2,4.2,3.6,3.5,4.5c-3.3,4.5,1.4,4.3,2.9,4.7c4.3,1.2,7.6,4,11.6,5.7
		c-2,1.7-3.9,1-5.8-0.3c-2.7-1.8-5.2-3.8-8.8-4c-2.3-0.1-3.1-2.1-2.6-4.4C249.1,116.2,249.2,114.1,248,112.1z"/>
	<path style="fill:#2280A8;" d="M242,183.9c-1.8,1.8-2.2-0.1-2.6-1.1c-0.9-2.1-2.4-3-4.6-2.9C239.3,177.3,240.1,181.5,242,183.9z"/>
	<path style="fill:#97C141;" d="M247.5,108.9c-1.4-3.2-0.5-5.9,0.4-8.6C248.9,103,250,105.7,247.5,108.9z"/>
	<path style="fill:#95BC38;" d="M259.9,109.9c-1.2,4.3-3.3,2.6-5.5,0.1C256.3,110,258.1,110,259.9,109.9
		C260,110,259.9,109.9,259.9,109.9z"/>
</g>
</svg>
