<?xml version="1.0" encoding="utf-8"?>
<!-- Generator: Adobe Illustrator 18.0.0, SVG Export Plug-In . SVG Version: 6.00 Build 0)  -->
<!DOCTYPE svg PUBLIC "-//W3C//DTD SVG 1.1//EN" "http://www.w3.org/Graphics/SVG/1.1/DTD/svg11.dtd">
<svg version="1.1" id="Layer_1" xmlns="http://www.w3.org/2000/svg" xmlns:xlink="http://www.w3.org/1999/xlink" x="0px" y="0px"
	 viewBox="0 0 144.2 201.5" style="enable-background:new 0 0 144.2 201.5;" xml:space="preserve">
<g>
	<path style="fill:#7791C1;" d="M27.5,122.9V18.5c0-8.2,6.6-14.9,14.7-14.9h0c7.9,0,12.4,6.4,12.7,14.4l2.1,61.6
		c0,0,18.7-8.7,29.3,9c24.3-6.2,28.6,9.3,28.6,9.3c0.4,0,6.6-2.2,13.3-1c7.1,1.3,12.3,7.7,12.2,15l-0.6,57.4
		c0,4.8-1.9,17.4-5.3,20.8v0c-3.4,3.4-8,7.4-12.7,7.4H47.1c-0.5,0-1,0-1.5,0c-12.2-0.5-22.9-8.4-27.6-19.9
		c-7.2-17.4-13.6-31.5-14.5-40.8c-1.3-13.3,15.8-32.3,24.3-33"/>
</g>
</svg>
