<?xml version="1.0" encoding="utf-8"?>
<!-- Generator: Adobe Illustrator 18.0.0, SVG Export Plug-In . SVG Version: 6.00 Build 0)  -->
<!DOCTYPE svg PUBLIC "-//W3C//DTD SVG 1.1//EN" "http://www.w3.org/Graphics/SVG/1.1/DTD/svg11.dtd">
<svg version="1.1" id="Layer_1" xmlns="http://www.w3.org/2000/svg" xmlns:xlink="http://www.w3.org/1999/xlink" x="0px" y="0px"
	 viewBox="0 0 224.3 35.3" style="enable-background:new 0 0 224.3 35.3;" xml:space="preserve">
<g>
	<path style="fill:#FFFEFE;stroke:#BE1622;stroke-miterlimit:10;" d="M90.4,20.6c2.9-3.8,4.4-7.7,5.8-11.4c1.5-4,3.8-5.2,8.1-3.9
		c-2.5,5.7-4.8,11.4-7.4,16.9c-1.6,3.3-10.7,5.9-13.5,3.9c-1.9-1.3-0.1-4.1-1.7-7c-2.5,7.6-8.3,7.2-13.9,7.1c-1.4,0-2.1-0.3-2.2-1.9
		c-0.2-5.6-0.4-11.2-0.8-16.8c-0.2-2.4,1-3.1,2.8-2.5C69.4,5.5,72.6,2.8,73,7c0.4,4.2,0.6,8.5,0.8,12.8c2.2,0,2-1.8,2.6-3
		c1.3-2.8,2.5-5.6,3.7-8.5c1.4-3.1,4.9-4.5,8.2-3.5c1.7,0.5,1.2,1.8,1.2,2.9C89.7,11.8,89.5,15.9,90.4,20.6z"/>
	<path style="fill:#FEFEFE;stroke:#BE1622;stroke-miterlimit:10;" d="M115.1,10.3c1.8,2.4,4.1,2.3,6.2,2.9c2.7,0.8,5.7,1.8,5.4,5.4
		c-0.3,3.6-1.8,6.3-6,7c-6.1,1-12.1,0.3-18.1,0.6c-0.5-4.9,1.7-6.2,6.1-5.7c2.8,0.3,5.7,0.1,9.7,0.1c-3.2-3-6.1-2.3-8.4-3.3
		c-2.4-1-5.2-1.5-5.1-5.1c0.1-3.5,1.5-6,5.1-6.8c5.3-1.1,10.6-0.4,15.9-0.6c1.8-0.1,1.3,1.2,1.2,2.1c-0.2,1.5,0.2,3.4-2.4,3.3
		C121.4,10.2,118.3,10.3,115.1,10.3z"/>
	<path style="fill:#FEFEFE;stroke:#BE1622;stroke-miterlimit:10;" d="M215.8,26.2c-1.1-0.2-3-0.4-4.8-0.7c-4.8-0.8-6.1-2.9-5.1-7.7
		c0.3-1.7,0.6-3.5,0.9-5.2c0.3-1.4,0.6-2.8-1.5-2.8c-1.4,0-2-0.6-1.6-1.9c0.4-1.1,0.1-2.8,2-3c0.9-0.1,2.3,0.4,2.4-1.2
		c0.3-5,4-3.4,6.8-3.6c0.9,0,2.1-0.1,1.9,1.1c-1.1,5.2,2.8,3.1,5.1,3.7c1.3,0.4,3.8-1.7,3.9,1.7c0.1,3.2-1.9,3.4-4.1,3
		c-5.1-0.9-7,1.3-7.4,6.2c-0.2,3.2,0.5,4.8,3.9,4.8c1.5,0,3.7-0.9,3.3,2.4c-0.3,2.4-0.9,3.6-3.4,3.2
		C217.5,26.1,217.1,26.2,215.8,26.2z"/>
	<path style="fill:#FDFDFD;stroke:#BE1622;stroke-miterlimit:10;" d="M183.1,25.9c0.6-3.4,1.3-6.4,1.7-9.5
		c1.1-10.2,4.1-11.7,14.3-11.9c3-0.1,2.9,1.2,2.7,3.4c-0.2,2.1-1.6,1.8-2.8,1.8c-3.3,0.1-5.3,1.4-5.4,5c0,1.5-0.5,2.9-0.8,4.4
		C191.5,26.7,191.5,26.7,183.1,25.9z"/>
	<path style="fill:#FEFEFE;stroke:#BE1622;stroke-miterlimit:10;" d="M147.7,5c-4.3-0.3-8.6,0-12.8-0.1c-2-0.1-3,0.7-3.3,2.6
		c-1.3,8-2.6,15.9-3.9,23.9c0.8,5.1,4.8,2.1,7.3,2.9c0.3-0.7,0.7-1.4,0.7-2.1c0-4.3,1.2-6.3,6.3-6.3c8.5,0,11.4-3.1,13.1-11.4
		C156.2,9,153.5,5.3,147.7,5z M147,13.5c-0.4,5.5-1.9,7.2-6.5,7.1c-1.1-0.2-3.6,0.4-2.5-2c1.4-3-1.6-8.4,4.5-8.8
		C145,9.5,147.3,10,147,13.5z"/>
	<path style="fill:#FEFEFE;stroke:#BE1622;stroke-miterlimit:10;" d="M58.2,6c-5.5-2.4-11.4-2.5-16.7,0.2c-5.1,2.6-5.7,7.9-5.6,13.1
		c0,3.4,1.9,5.3,5.3,6.1c4.7,1.1,9.4,0.5,14.1,0.8c2.8,0.2,3-1.4,3.2-3.5c0.3-3-1.8-2-3.2-2.1c-3.7-0.4-7.6,0.9-11.1-1
		c0-0.5,0-0.9,0.1-1.4c4.5,0,8.9,0,13.4,0c1.1,0,2.4,0.4,3.2-0.9C62.4,14.6,61,7.3,58.2,6z M52.9,12c-1.4,1.2-3,0.4-4.6,0.6
		c-1,0.1-2.1,0.4-3.1-0.7c0.4-1.1,1.1-1.5,2-1.8c2-0.5,3.8-0.5,5.4,0.8C52.9,11.1,53,11.8,52.9,12z"/>
	<path style="fill:#FEFEFE;stroke:#BE1622;stroke-miterlimit:10;" d="M179.2,5.9c-5.4-2.2-11.1-2.4-16.3,0.2
		c-4.9,2.4-5.9,7.4-5.8,12.5c0.1,4.4,2.2,6.8,6.5,7.5c1.4,0.2,3,0,4.4,0c9.7,0.1,13.9-3.6,14.5-13.2C182.8,10.1,182.2,7.2,179.2,5.9
		z M174.2,13.4c-0.1,5.3-1.6,7.4-5.1,7.5c-2.4,0.1-3.9-0.6-3.9-3.4c0.1-5,2.2-7.9,5.8-7.8C173.5,9.9,174.7,11.1,174.2,13.4z"/>
</g>
<path style="fill:#FAFAFA;stroke:#BE1622;stroke-miterlimit:10;" d="M13.4,25.8H4.8l2.3-12.9c0.2-1-0.6-2.9-1.6-2.9H0.6l1-5.6H27
	c3.5,0,6.3,3.1,5.8,6.6l-2,14.9h-9.2l1.7-13.2c0.2-1.1-0.7-2.2-1.9-2.2h-4.6c-0.2,0-0.3,0.1-0.4,0.3L13.4,25.8z"/>
</svg>
